<svg xmlns="http://www.w3.org/2000/svg" width="512" height="512" viewBox="0 0 512 512">
  <defs>
    <style>
      .cls-1 {
        fill: #f19f4d;
      }
    </style>
  </defs>
  <g id="Layer_2" data-name="Layer 2">
    <path class="cls-1" d="M63.62,430.65a6.93,6.93,0,0,1-2.76-.57,7.1,7.1,0,0,1-3.78-9.31l36-85.29a7.11,7.11,0,0,1,13.1,0l36,85.29a7.09,7.09,0,0,1-3.79,9.31,6.93,6.93,0,0,1-2.76.57,7.11,7.11,0,0,1-6.55-4.35l-5.87-13.92H76.05L70.17,426.3A7.09,7.09,0,0,1,63.62,430.65Zm18.43-32.48h35.17L99.63,356.52Z"/>
    <path class="cls-1" d="M6.22,235.69a7.12,7.12,0,0,1-7.11-7.11v-195a7.11,7.11,0,0,1,7.11-7.1H505.78a7.11,7.11,0,0,1,7.11,7.1v195a7.12,7.12,0,0,1-7.11,7.11Zm193.93-14.21H498.67V40.74H200.15Zm-186.82,0H185.94V40.74H13.33Z"/>
    <path class="cls-1" d="M256.13,138.22a7.11,7.11,0,1,1,0-14.22h114.1a7.11,7.11,0,0,1,0,14.22Z"/>
    <path class="cls-1" d="M413.8,138.22a7.11,7.11,0,0,1,0-14.22h36.67a7.11,7.11,0,0,1,0,14.22Z"/>
    <path class="cls-1" d="M256.13,93.54a7.11,7.11,0,1,1,0-14.21H420.39a7.11,7.11,0,1,1,0,14.21Z"/>
    <path class="cls-1" d="M451,93.54a7.1,7.1,0,1,1,5-2.08A7.15,7.15,0,0,1,451,93.54Z"/>
    <path class="cls-1" d="M256.13,182.89a7.11,7.11,0,1,1,0-14.21h86.51a7.11,7.11,0,0,1,0,14.21Z"/>
    <path class="cls-1" d="M377.12,182.89a7.1,7.1,0,1,1,5-2.08A7.15,7.15,0,0,1,377.12,182.89Z"/>
    <path class="cls-1" d="M413.8,182.89a7.12,7.12,0,1,1,5-2.08A7.19,7.19,0,0,1,413.8,182.89Z"/>
    <path class="cls-1" d="M450.47,182.89a7.1,7.1,0,1,1,5-2.08A7.15,7.15,0,0,1,450.47,182.89Z"/>
    <path class="cls-1" d="M6.22,485.47a7.12,7.12,0,0,1-7.11-7.1V283.42a7.12,7.12,0,0,1,7.11-7.11H505.78a7.12,7.12,0,0,1,7.11,7.11v195a7.12,7.12,0,0,1-7.11,7.1Zm193.93-14.21H498.67V290.52H200.15Zm-186.82,0H185.94V290.52H13.33Z"/>
    <path class="cls-1" d="M256.13,388a7.11,7.11,0,1,1,0-14.22h114.1a7.11,7.11,0,0,1,0,14.22Z"/>
    <path class="cls-1" d="M413.8,388a7.11,7.11,0,0,1,0-14.22h36.67a7.11,7.11,0,0,1,0,14.22Z"/>
    <path class="cls-1" d="M256.13,343.32a7.11,7.11,0,1,1,0-14.21H420.39a7.11,7.11,0,1,1,0,14.21Z"/>
    <path class="cls-1" d="M451,343.32a7.1,7.1,0,1,1,5-2.08A7.15,7.15,0,0,1,451,343.32Z"/>
    <path class="cls-1" d="M256.13,432.67a7.11,7.11,0,1,1,0-14.21H450.47a7.11,7.11,0,1,1,0,14.21Z"/>
    <path class="cls-1" d="M97.6,177.82a43.71,43.71,0,0,1-43.66-43.66V117.91a43.66,43.66,0,0,1,87.32,0v16.25a43.17,43.17,0,0,1-4.32,18.94l-1.1,2.27,11.67,8.6a7.11,7.11,0,0,1-8.43,11.45L127,166.51,125.15,168A43.75,43.75,0,0,1,97.6,177.82Zm0-89.36a29.48,29.48,0,0,0-29.44,29.45v16.25a29.42,29.42,0,0,0,43,26.13l4.34-2.25-13.63-10a7.11,7.11,0,1,1,8.43-11.44L124.45,147l1.27-4.08a29.47,29.47,0,0,0,1.33-8.75V117.91A29.48,29.48,0,0,0,97.6,88.46Z"/>
  </g>
</svg>
