<svg id="Layer_4" data-name="Layer 4" xmlns="http://www.w3.org/2000/svg" width="512" height="512" viewBox="0 0 512 512">
  <defs>
    <style>
      .cls-1 {
        fill: #f19f4d;
      }
    </style>
  </defs>
  <g>
    <path class="cls-1" d="M440-1.1H418c-9.67,0-9.67,15,0,15h22A41.2,41.2,0,0,1,481.26,55v173.6A41.2,41.2,0,0,1,440,269.66h-25a7.51,7.51,0,0,0-4.56,1.54L364.7,306.25V277.16a7.5,7.5,0,0,0-7.5-7.5H265.9a40.92,40.92,0,0,1-21-5.73v-84.2a45.77,45.77,0,0,0-20.24-37.95V55A41.21,41.21,0,0,1,265.9,13.9H371c9.67,0,9.67-15,0-15H265.9A56.22,56.22,0,0,0,209.67,55v80.21A45.94,45.94,0,0,0,199,133.92H61.66a45.93,45.93,0,0,0-45.93,45.81v16.2c0,9.67,15,9.67,15,0v-16.2a30.91,30.91,0,0,1,30.93-30.81H199a30.91,30.91,0,0,1,30.93,30.81v87.19a7.37,7.37,0,0,0,0,2v47.72c0,.94-.06,1.88-.15,2.81H214.29a34.81,34.81,0,0,0-34.2,28.47,7.47,7.47,0,0,0-1.94,1.09L144.6,374.9v-20a7.5,7.5,0,0,0-7.5-7.5H61.66a30.91,30.91,0,0,1-30.93-30.81v-75.7c0-9.67-15-9.67-15,0v75.7a45.93,45.93,0,0,0,45.93,45.81H129.6v27.73a7.61,7.61,0,0,0,12.08,5.94l37.84-29.22v84.39A34.77,34.77,0,0,0,214.29,486h46v17.5a7.61,7.61,0,0,0,12.08,5.94L302.77,486h9a34.77,34.77,0,0,0,34.77-34.69V438c0-9.67-15-9.67-15,0v13.32A19.75,19.75,0,0,1,311.74,471H300.21a7.5,7.5,0,0,0-4.58,1.56l-20.3,15.67v-9.73a7.5,7.5,0,0,0-7.5-7.5H214.29a19.76,19.76,0,0,1-19.77-19.69V354.13a19.75,19.75,0,0,1,19.77-19.68h97.45a19.75,19.75,0,0,1,19.77,19.68V391c0,9.67,15,9.67,15,0V354.13a34.77,34.77,0,0,0-34.77-34.69H244.82c.06-.93.09-38.82.09-38.82a56.1,56.1,0,0,0,21,4H349.7v36.77a7.62,7.62,0,0,0,12.06,6l55.85-42.73H440a56.22,56.22,0,0,0,56.23-56.08V55A56.22,56.22,0,0,0,440-1.1Z"/>
    <path class="cls-1" d="M371.71,54.32a15.63,15.63,0,0,0-19.23,14.93,44.08,44.08,0,0,1-11,29.18l-20.66,23.38a7.5,7.5,0,0,0-6.29-3.41H274.16a7.5,7.5,0,0,0-7.5,7.5v90.78a7.5,7.5,0,0,0,7.5,7.5H314.5a7.49,7.49,0,0,0,6.82-4.39,52.45,52.45,0,0,0,27.27,7.69h71.3a19.63,19.63,0,0,0,19.37-20.32c-.23-4.81,0-69.43,0-70.87a19.41,19.41,0,0,0-19.37-19.39l-37.08-.11,1.54-3.64a58.58,58.58,0,0,0-3.09-51.54,15.28,15.28,0,0,0-9.57-7.29ZM307,209.18H281.66V133.4H307ZM419.89,131.9a4.4,4.4,0,0,1,4.39,4.39c0,1.43,0,5.3,0,10.55-.11,29-.19,56.46,0,61a4.43,4.43,0,0,1-1.21,3.25,4.36,4.36,0,0,1-3.18,1.36h-71.3a37.41,37.41,0,0,1-23.43-8.29L322,201.63V143.09l30.7-34.73a59.12,59.12,0,0,0,14.79-39.11.42.42,0,0,1,.77-.2,43.48,43.48,0,0,1,2.29,38.26l-5.92,14a7.5,7.5,0,0,0,6.88,10.42Z"/>
    <path class="cls-1" d="M80,259.43a7.51,7.51,0,0,0,0,15h22.11l-4.13,25a7.5,7.5,0,0,0,6.18,8.62,7.4,7.4,0,0,0,1.23.11,7.5,7.5,0,0,0,7.39-6.28l4.54-27.43h18.09l-4.13,25a7.5,7.5,0,0,0,6.18,8.62,7.4,7.4,0,0,0,1.23.11,7.5,7.5,0,0,0,7.39-6.28l4.54-27.43h30.1a7.5,7.5,0,0,0,0-15H153.06l3-18.3h24.6a7.5,7.5,0,0,0,0-15H158.56l4.14-25a7.5,7.5,0,0,0-14.81-2.44l-4.53,27.43h-18.1l4.13-25a7.5,7.5,0,1,0-14.8-2.44l-4.53,27.42H80a7.51,7.51,0,0,0,0,15h27.62l-3,18.29Zm42.82-18.29h18.1l-3,18.29H119.76Z"/>
    <path class="cls-1" d="M262.93,373.15a25.24,25.24,0,0,0-22.2-5c-10.36,2.52-20.81,12.2-20.81,28.16,0,9.94,3.62,18.56,11.08,26.36,6.09,6.38,14.88,12.44,28.5,19.66a7.46,7.46,0,0,0,7,0c23.76-12.59,39.59-25.24,39.59-46,0-16.05-10.83-25.63-21.55-28a25.15,25.15,0,0,0-21.64,4.84Zm28.18,23.17c0,11.21-7.43,19.5-28.09,30.87-20.67-11.37-28.1-19.66-28.1-30.87,0-8.34,4.83-12.48,9.35-13.58a11.29,11.29,0,0,1,2.64-.32,10.34,10.34,0,0,1,9.44,6,7.5,7.5,0,0,0,13.46-.27c2.43-5.2,7.54-6.12,11.5-5.23C286.05,384,291.11,388.07,291.11,396.32Z"/>
  </g>
</svg>
