<?xml version="1.0" encoding="UTF-8"?>
<svg width="27px" height="25px" viewBox="0 0 27 25" version="1.1" xmlns="http://www.w3.org/2000/svg" xmlns:xlink="http://www.w3.org/1999/xlink">
    <title>Group 6</title>
    <defs>
        <polygon id="path-1" points="0.0276521673 24.8108108 26.2979224 24.8108108 26.2979224 0 0.0276521673 0"></polygon>
    </defs>
    <g id="一对一专业科普" stroke="none" stroke-width="1" fill="none" fill-rule="evenodd">
        <g id="一对一科普---Desktops" transform="translate(-206.000000, -1541.000000)">
            <g id="Group-20" transform="translate(206.000000, 1541.000000)">
                <g id="Group-17">
                    <g id="Group-11">
                        <g id="Group-6" transform="translate(0.000000, 0.000000)">
                            <path d="M20.1681927,15.9498069 L16.66549,15.9498069 L16.66549,16.8359073 L20.1681927,16.8359073 C21.2445623,16.8371811 22.3020501,16.5499184 23.2330576,16.0032499 L23.2330576,21.2664093 C23.2327839,21.510973 23.0369062,21.7091826 22.7952197,21.7094595 L3.53035487,21.7094595 C3.28866838,21.7091826 3.09279068,21.510973 3.09251703,21.2664093 L3.09251703,16.0032499 C4.02352446,16.5499184 5.0810123,16.8371811 6.1573819,16.8359073 L9.6600846,16.8359073 L9.6600846,15.9498069 L6.1573819,15.9498069 C3.25697987,15.9464841 0.906611627,13.5680799 0.903327843,10.6332046 L0.903327843,6.6457529 C0.903601492,6.40118919 1.09947919,6.20297961 1.34116568,6.2027027 L24.9844089,6.2027027 C25.2260954,6.20297961 25.4219731,6.40118919 25.4222468,6.6457529 L25.4222468,10.6332046 C25.418963,13.5680799 23.06854,15.9464841 20.1681927,15.9498069 L20.1681927,15.9498069 Z M25.4222468,22.5955598 C25.4213711,23.3293063 24.8338474,23.9238243 24.1087332,23.9247104 L2.21684136,23.9247104 C1.49172717,23.9238243 0.904148789,23.3293063 0.903327843,22.5955598 L0.903327843,13.8248828 C1.2537623,14.4128658 1.69751095,14.9383787 2.21684136,15.3803213 L2.21684136,21.2664093 C2.2176623,22.0001558 2.80524068,22.5947291 3.53035487,22.5955598 L22.7952197,22.5955598 C23.5203339,22.5947291 24.1079123,22.0001558 24.1087332,21.2664093 L24.1087332,15.3803213 C24.6280089,14.9383787 25.071867,14.4128104 25.4222468,13.8248828 L25.4222468,22.5955598 Z M8.78440892,5.31660232 L9.6600846,5.31660232 L9.6600846,4.43050193 L8.78440892,4.43050193 L8.78440892,5.31660232 Z M11.8492738,0.886100386 L14.4763008,0.886100386 C15.9989914,0.888149493 17.290011,2.01964431 17.5094224,3.54440154 L16.6214326,3.54440154 C16.4120366,2.51375603 15.5161657,1.77352992 14.4763008,1.77220077 L11.8492738,1.77220077 C10.8094089,1.77352992 9.91348325,2.51375603 9.70414203,3.54440154 L8.8162069,3.54440154 C9.03556365,2.01964431 10.3265832,0.888149493 11.8492738,0.886100386 L11.8492738,0.886100386 Z M15.7898143,5.31660232 L10.5357603,5.31660232 L10.5357603,3.98745174 C10.5365812,3.25370524 11.1241596,2.65913188 11.8492738,2.65830116 L14.4763008,2.65830116 C15.201415,2.65913188 15.7889387,3.25370524 15.7898143,3.98745174 L15.7898143,5.31660232 Z M16.66549,5.31660232 L17.5411657,5.31660232 L17.5411657,4.43050193 L16.66549,4.43050193 L16.66549,5.31660232 Z M24.9844089,5.31660232 L18.4168414,5.31660232 L18.4168414,3.98745174 C18.4143785,1.78626762 16.6515887,0.00249215734 14.4763008,0 L11.8492738,0 C9.67398595,0.00249215734 7.91119609,1.78626762 7.90873325,3.98745174 L7.90873325,5.31660232 L1.34116568,5.31660232 C0.616051492,5.31743304 0.0284731133,5.91200639 0.0276521673,6.6457529 L0.0276521673,22.5955598 C0.0290204106,23.8184338 1.00835419,24.8094263 2.21684136,24.8108108 L24.1087332,24.8108108 C25.3172204,24.8094263 26.2965542,23.8184338 26.2979224,22.5955598 L26.2979224,6.6457529 C26.2970468,5.91200639 25.7095231,5.31743304 24.9844089,5.31660232 L24.9844089,5.31660232 Z" id="Fill-1" fill="#F19F4D"></path>
                            <mask id="mask-2" fill="white">
                                <use xlink:href="#path-1"></use>
                            </mask>
                            <g id="Clip-4"></g>
                            <path d="M11.2168414,18.1216216 L15.1087332,18.1216216 L15.1087332,14.7162162 L11.2168414,14.7162162 L11.2168414,18.1216216 Z M11.2168414,13.8648649 L15.1087332,13.8648649 L15.1087332,13.0135135 L11.2168414,13.0135135 L11.2168414,13.8648649 Z M13.1627873,9.60810811 C14.2370103,9.6091723 15.107517,10.3708657 15.1087332,11.3108108 L15.1087332,12.1621622 L11.2168414,12.1621622 L11.2168414,11.3108108 C11.2180576,10.3708657 12.0885643,9.6091723 13.1627873,9.60810811 L13.1627873,9.60810811 Z M13.1627873,8.75675676 C11.5514832,8.75835304 10.2456927,9.90091976 10.2438684,11.3108108 L10.2438684,18.5472973 C10.2438684,18.7823767 10.4616927,18.972973 10.7303549,18.972973 L10.7303549,18.972973 L15.5952197,18.972973 C15.8638819,18.972973 16.0817062,18.7824299 16.0817062,18.5472973 L16.0817062,11.3108108 C16.0798819,9.90091976 14.7740914,8.75835304 13.1627873,8.75675676 L13.1627873,8.75675676 Z" id="Fill-3" fill="#F19F4D" mask="url(#mask-2)"></path>
                            <path d="M14.0749495,16.0540541 L12.9803549,16.0540541 C12.6781099,16.0540541 12.4330576,16.2174223 12.4330576,16.4189189 C12.4330576,16.6204155 12.6781099,16.7837838 12.9803549,16.7837838 L14.0749495,16.7837838 C14.3771944,16.7837838 14.6222468,16.6204155 14.6222468,16.4189189 C14.6222468,16.2174223 14.3771944,16.0540541 14.0749495,16.0540541" id="Fill-5" fill="#F19F4D" mask="url(#mask-2)"></path>
                        </g>
                    </g>
                </g>
            </g>
        </g>
    </g>
</svg>