<?xml version="1.0" encoding="UTF-8"?>
<svg width="27px" height="27px" viewBox="0 0 27 27" version="1.1" xmlns="http://www.w3.org/2000/svg" xmlns:xlink="http://www.w3.org/1999/xlink">
    <title>Group 3</title>
    <defs>
        <polygon id="path-1" points="0 0 27 0 27 27 0 27"></polygon>
    </defs>
    <g id="一对一专业科普" stroke="none" stroke-width="1" fill="none" fill-rule="evenodd">
        <g id="一对一科普---Desktops" transform="translate(-206.000000, -1914.000000)">
            <g id="Group-3" transform="translate(206.000000, 1914.000000)">
                <mask id="mask-2" fill="white">
                    <use xlink:href="#path-1"></use>
                </mask>
                <g id="Clip-2"></g>
                <path d="M26.1000096,26.0999991 L0.899974101,26.0999991 L0.899974101,24.3134972 C0.896144935,23.9547906 1.10950097,23.629384 1.44002564,23.4899963 L7.21306983,21.6197944 C7.25531354,21.6059569 7.29958224,21.5992631 7.3440197,21.5999944 L7.47901956,21.5999944 L11.4012156,25.086148 C11.5792467,25.2443232 11.8496964,25.2364482 12.018165,25.068148 L13.5000135,23.5862964 L14.981862,25.068148 C15.1503306,25.2364482 15.4207803,25.2443232 15.5988114,25.086148 L19.5210074,21.5999944 L19.6560073,21.5999944 C19.703651,21.5995444 19.7509572,21.6073069 19.7959572,21.6229444 L25.5343514,23.4809963 C25.8768573,23.6149277 26.1016321,23.9457343 26.1000096,24.3134972 L26.1000096,26.0999991 Z M9.08146795,19.9912427 L12.8250142,22.9873458 L11.6820153,24.131697 L8.25886878,21.0887938 L9.08146795,19.9912427 Z M8.55001848,13.7924862 L8.55001848,9.724032 C9.05536797,9.54290682 9.58816744,9.45020672 10.1250169,9.44998172 C11.0468972,9.42911295 11.9501588,9.71165699 12.6958643,10.2541326 C12.8628704,10.3821577 13.0119327,10.5320078 13.1391139,10.699633 C13.2882325,10.898477 13.5702697,10.938752 13.7691132,10.7896331 C13.8032007,10.7640393 13.8335194,10.7337206 13.8591131,10.699633 C13.9865755,10.5316703 14.1359754,10.3815389 14.3032627,10.2532326 C15.0493619,9.71092574 15.9529048,9.4287192 16.8750101,9.44998172 C17.4118596,9.45020672 17.944659,9.54290682 18.4500085,9.724032 L18.4500085,13.7924862 C18.4475335,15.8666509 16.7666727,17.5475152 14.6925123,17.5499902 L12.3075147,17.5499902 C10.2333543,17.5475152 8.55249348,15.8666509 8.55001848,13.7924862 L8.55001848,13.7924862 Z M8.09101895,5.84997797 C8.09602519,5.82629669 8.09906269,5.80216542 8.10001894,5.77797789 L8.10001894,4.88607696 L13.5000135,4.0553761 L18.9000081,4.88607696 L18.9000081,5.77797789 C18.9009643,5.80216542 18.9040018,5.82629669 18.9090081,5.84997797 L18.9000081,5.84997797 L18.9000081,8.92348117 C18.25409,8.67418091 17.5673344,8.54750578 16.8750101,8.54998078 C15.75198,8.53029326 14.6535873,8.88016863 13.7488633,9.54583182 C13.6588633,9.61513189 13.5774134,9.68578196 13.5000135,9.75913204 C13.4226136,9.68623196 13.3407137,9.61558189 13.2520638,9.54673182 C12.3472834,8.88050613 11.248497,8.53023701 10.1250169,8.54998078 C9.43269259,8.54750578 8.74593704,8.67418091 8.10001894,8.92348117 L8.10001894,5.84997797 L8.09101895,5.84997797 Z M7.58341946,4.0553761 C7.36325718,4.08833863 7.20024484,4.27733883 7.20001984,4.49997656 L7.20001984,5.1097272 L5.64437141,4.47972654 L13.5000135,0.944972859 L21.3556556,4.47972654 L19.8000072,5.1097272 L19.8000072,4.49997656 C19.7999509,4.27790133 19.6378948,4.08912613 19.4184075,4.0553761 L13.5684134,3.15537516 C13.5236947,3.1483439 13.4781323,3.1483439 13.4334136,3.15537516 L7.58341946,4.0553761 Z M13.5000135,22.3735452 L10.3500167,19.8535426 L10.3500167,18.0130406 C10.9626348,18.3002534 11.6308841,18.4494286 12.3075147,18.4499911 L14.6925123,18.4499911 C15.3691429,18.4494286 16.0373922,18.3002534 16.6500103,18.0130406 L16.6500103,19.8535426 L13.5000135,22.3735452 Z M17.9199091,19.9912427 L18.7411582,21.0887938 L15.3180117,24.131697 L14.1750128,22.9873458 L17.9199091,19.9912427 Z M22.0500049,9.44998172 L22.950004,9.44998172 L22.950004,6.74997891 L22.0500049,6.74997891 L22.0500049,9.44998172 Z M25.8385511,22.6349955 L20.0821569,20.7692935 C19.9449633,20.7227185 19.8009072,20.6992622 19.6560073,20.6999934 L19.5750074,20.6999934 L18.3600086,19.0799917 C18.2869399,18.9825666 18.1775338,18.9189478 18.0567089,18.9035916 C18.0377527,18.9037041 18.0187965,18.9052228 18.0000135,18.9080916 L18.0000135,18.8999916 L17.5500094,18.8999916 L17.5500094,17.4626901 C18.684627,16.5829391 19.3490514,15.2282127 19.3500076,13.7924862 L19.3500076,10.0925824 C19.4275763,10.0930324 19.5039075,10.0731761 19.5714074,10.0349823 C19.7125948,9.95521975 19.7998947,9.80565084 19.8000072,9.64348192 L19.8000072,6.08082821 L22.0500049,5.16822726 L22.0500049,5.84997797 C21.5529241,5.84997797 21.1500058,6.25289714 21.1500058,6.74997891 L21.1500058,9.44998172 C21.1500058,9.94706349 21.5529241,10.3499827 22.0500049,10.3499827 L22.950004,10.3499827 C23.4470847,10.3499827 23.8500031,9.94706349 23.8500031,9.44998172 L23.8500031,6.74997891 C23.8500031,6.25289714 23.4470847,5.84997797 22.950004,5.84997797 L22.950004,4.49997656 C22.9501727,4.32307013 22.8466166,4.16247621 22.6854043,4.08957613 L13.6854133,0.0395719162 C13.5680759,-0.0131906387 13.4337511,-0.0131906387 13.3164137,0.0395719162 L4.31642274,4.08957613 C4.08967922,4.19138874 3.98842932,4.45773277 4.09024172,4.6844205 C4.13771667,4.79017061 4.22422909,4.8735332 4.33172273,4.917127 L7.20001984,6.08082821 L7.20001984,9.64348192 C7.20001984,9.89199468 7.40150714,10.0934824 7.65001939,10.0934824 L7.65001939,13.7924862 C7.65097564,15.2282127 8.31539997,16.5829391 9.45001758,17.4626901 L9.45001758,18.8999916 L9.00001348,18.8999916 L9.00001348,18.9080916 C8.98123055,18.9052228 8.96227432,18.9037041 8.94331809,18.9035916 C8.82249321,18.9189478 8.71308707,18.9825666 8.64001839,19.0799917 L7.42501962,20.6999934 L7.3440197,20.6999934 C7.20210109,20.6990372 7.06102623,20.7215372 6.92642012,20.7665935 L1.13492594,22.6439955 C0.448114136,22.9126457 -0.00284166056,23.5760027 1.34790697e-05,24.3134972 L1.34790697e-05,26.5499995 C1.34790697e-05,26.7985123 0.201514384,27 0.450026634,27 L26.5500004,27 C26.7985126,27 27,26.7985123 27,26.5499995 L27,24.3134972 C27,23.5666652 26.5375129,22.8979645 25.8385511,22.6349955 L25.8385511,22.6349955 Z" id="Fill-1" fill="#F19F4D" mask="url(#mask-2)"></path>
            </g>
        </g>
    </g>
</svg>