<svg id="Capa_1" data-name="Capa 1" xmlns="http://www.w3.org/2000/svg" width="512" height="512" viewBox="0 0 512 512">
  <defs>
    <style>
      .cls-1 {
        fill: #f19f4d;
      }
    </style>
  </defs>
  <path class="cls-1" d="M363.64,262.27a10,10,0,0,0-6.16-6.58,70.29,70.29,0,0,0-13.2-3.09c32.71-34.8,21.91-75.46,19.36-83.4a10,10,0,0,0-6.16-6.59c-1.41-.51-25.89-9.14-53.78.56a90,90,0,0,0,2.5-21.35C306.2,92,268.43,70,260.85,66.14a10,10,0,0,0-9-.3c-1.87.88-45.93,22-45.93,76a89.94,89.94,0,0,0,2.51,21.4c-27.94-9.78-52.49-1.12-53.89-.61a10,10,0,0,0-6.17,6.59c-2.55,7.94-13.35,48.6,19.36,83.4a69.81,69.81,0,0,0-13.19,3.09,10,10,0,0,0-6.17,6.58c-2.6,8.11-13.81,50.31,21.45,85.57,20.41,20.41,43.06,25.27,60,25.27a88.88,88.88,0,0,0,16.1-1.46v65.43a10,10,0,0,0,20,0V371.63a90,90,0,0,0,16.24,1.48c17,0,39.62-4.87,60-25.27C377.45,312.58,366.24,270.37,363.64,262.27ZM245.93,340.48a66.45,66.45,0,0,1-1.47,11.1C233.77,354,207,356.77,184,333.7c-22.72-22.73-20.34-49-17.83-60.5a67,67,0,0,1,34.36,1.62c1,.36,1.91.69,2.86,1a65.71,65.71,0,0,1,23.24,15.24c14.42,14.42,18.72,30.27,19.35,42.74Zm0-93.07a66.16,66.16,0,0,1-1.47,11.09,66.38,66.38,0,0,1-33.67-1.34c-1.44-.56-2.88-1.06-4.3-1.52a66.08,66.08,0,0,1-22.54-15c-22.72-22.73-20.34-49-17.83-60.51,10.68-2.32,37.5-5.08,60.46,17.88l.42.44c.88,1,1.76,1.92,2.64,2.83a63.39,63.39,0,0,1,16.29,39.47v6.67Zm10.14-50.18a68.16,68.16,0,0,1-12.24-10.11c-.46-.51-.94-1-1.42-1.54-8.36-9.28-16.5-23.51-16.5-43.76,0-32.6,20.86-49.51,30.09-55.4,9.89,6.32,30.19,23.24,30.19,55.4,0,19.11-7.17,32.82-15,42.09-1.62,1.62-3.13,3.26-4.56,4.9A66.75,66.75,0,0,1,256.07,197.23ZM266,244.17a63.31,63.31,0,0,1,15.46-41.87c1.47-1.46,2.95-3,4.42-4.73a64.54,64.54,0,0,1,60-17.46c2.52,11.46,4.92,37.78-17.82,60.52a65.87,65.87,0,0,1-22.5,15c-1.45.47-2.91,1-4.38,1.55a66.34,66.34,0,0,1-33.63,1.34A67.32,67.32,0,0,1,266,244.42Zm62.06,89.53a64.53,64.53,0,0,1-60.49,17.88c-2.33-10.63-5.14-37.51,17.86-60.51a66.1,66.1,0,0,1,22.55-15c1.43-.46,2.86-1,4.3-1.52a66.37,66.37,0,0,1,33.6-1.35C348.39,284.64,350.79,311,328.05,333.7Z"/>
  <path class="cls-1" d="M309.36,5.57A258.26,258.26,0,0,0,256,0,256,256,0,0,0,54.1,413.38,37.9,37.9,0,1,0,69,400,236.42,236.42,0,0,1,20,256C20,125.87,125.87,20,256,20a237.55,237.55,0,0,1,49.21,5.14,10,10,0,0,0,4.15-19.57Zm-236,415.65A18,18,0,1,1,68.05,434,17.94,17.94,0,0,1,73.32,421.22Z"/>
  <path class="cls-1" d="M457.9,98.62A37.9,37.9,0,1,0,443,112a236.45,236.45,0,0,1,49,144c0,130.13-105.87,236-236,236a237.84,237.84,0,0,1-41.69-3.67A10,10,0,1,0,210.8,508a258.45,258.45,0,0,0,45.2,4A256,256,0,0,0,457.9,98.62Zm-19.22-7.84A18,18,0,1,1,444,78.05,17.88,17.88,0,0,1,438.68,90.78Z"/>
  <path class="cls-1" d="M168.13,475.1l-3.77,9.26,3.75-9.27a10,10,0,0,0-7.5,18.54l.31.13a10,10,0,1,0,7.21-18.66Z"/>
  <path class="cls-1" d="M351.82,18.54l-.17-.07A10,10,0,0,0,344.22,37l.11.05a10.12,10.12,0,0,0,3.75.73,10,10,0,0,0,3.74-19.28Z"/>
</svg>
