<svg id="Capa_1" data-name="Capa 1" xmlns="http://www.w3.org/2000/svg" width="512" height="512" viewBox="0 0 512 512">
  <defs>
    <style>
      .cls-1 {
        fill: #f19f4d;
      }

      .cls-2 {
        font-size: 12px;
        font-family: MyriadPro-Regular, Myriad Pro;
      }
    </style>
  </defs>
  <path class="cls-1" d="M42.69,298.68a8.53,8.53,0,0,0,8.53-8.53V102.41a8.54,8.54,0,0,0-17.07,0V290.15A8.53,8.53,0,0,0,42.69,298.68Z"/>
  <path class="cls-1" d="M256,170.68a34.14,34.14,0,1,0,34.13,34.14A34.13,34.13,0,0,0,256,170.68Zm0,51.2a17.07,17.07,0,1,1,17.06-17.06A17.06,17.06,0,0,1,256,221.88Z"/>
  <path class="cls-1" d="M350,170.65h-15.8a86.43,86.43,0,0,0-9.51-16.46l7.89-13.69a17.17,17.17,0,0,0-6.36-23.22l-29.47-17a16.88,16.88,0,0,0-12.9-1.79,17.19,17.19,0,0,0-10.45,7.93L265.52,120a84.68,84.68,0,0,0-19,0l-7.84-13.6a17.1,17.1,0,0,0-23.32-6.25l-29.55,17.07a17.09,17.09,0,0,0-6.26,23.31l7.86,13.6a85,85,0,0,0-9.53,16.47l-15.76,0A17.2,17.2,0,0,0,150,175.77a16.8,16.8,0,0,0-4.9,12l0,34.07a17.19,17.19,0,0,0,17,17.15l15.69,0a85.69,85.69,0,0,0,4.3,8.5,87.13,87.13,0,0,0,5.2,8l-7.89,13.69a17.18,17.18,0,0,0,6.37,23.21l29.46,17a16.86,16.86,0,0,0,12.91,1.79,17.17,17.17,0,0,0,10.45-7.92l7.89-13.63a84.68,84.68,0,0,0,19,0l7.85,13.6a17.08,17.08,0,0,0,23.31,6.25l29.56-17.07A17.09,17.09,0,0,0,332.51,269l-7.85-13.6A84.69,84.69,0,0,0,334.18,239L350,239a17.13,17.13,0,0,0,12.07-5.1,16.77,16.77,0,0,0,4.91-12V187.81A17.18,17.18,0,0,0,350,170.65Zm-21.68,51.26a8.54,8.54,0,0,0-8,5.74,67.32,67.32,0,0,1-12.41,21.48A8.53,8.53,0,0,0,307,259l10.75,18.62-29.56,17.07L277.42,276a8.53,8.53,0,0,0-7.39-4.26,8.26,8.26,0,0,0-1.57.14,67.41,67.41,0,0,1-24.81,0,8.51,8.51,0,0,0-9,4.1l-10.79,18.61-29.61-17L205,259a8.52,8.52,0,0,0-.92-9.83,68.53,68.53,0,0,1-12.4-21.49,8.54,8.54,0,0,0-8.05-5.72l-21.46-.06,0-34.11,21.56,0a8.54,8.54,0,0,0,8.05-5.74,67.13,67.13,0,0,1,12.41-21.48,8.54,8.54,0,0,0,.91-9.82l-10.75-18.62L223.87,115l10.75,18.63a8.51,8.51,0,0,0,9,4.12,67,67,0,0,1,24.81,0,8.54,8.54,0,0,0,9-4.1L288.17,115l29.6,17L307,150.68a8.53,8.53,0,0,0,.92,9.82A68.5,68.5,0,0,1,320.36,182a8.56,8.56,0,0,0,8.05,5.71h21.47l0,34.16Z"/>
  <path class="cls-1" d="M512,92a51.05,51.05,0,0,0-51.17-49.34H119.49V17.08A17.08,17.08,0,0,0,102.42,0H51.22A51.06,51.06,0,0,0,0,51.22v367a53,53,0,0,0,50.52,51c.23,0,.44.14.68.14h5.89L69.74,497A25.36,25.36,0,0,0,72,500.94c.27.4.57.76.87,1.15a25.12,25.12,0,0,0,2.05,2.33c.36.36.7.73,1.09,1.07a26.52,26.52,0,0,0,3.37,2.57c.26.16.55.28.83.44a23.09,23.09,0,0,0,3.2,1.56c.22.1.42.24.65.32s.58.15.86.24a22.39,22.39,0,0,0,2.52.69c.53.13,1,.26,1.57.35a25.79,25.79,0,0,0,3.27.29c.25,0,.5.07.75.07a25.73,25.73,0,0,0,10.61-2.32l88.47-40.36H392.55v25.6A17.09,17.09,0,0,0,409.62,512h51.19a51.25,51.25,0,0,0,51.2-51.2V93.88a2.8,2.8,0,0,0-.06-.28C512,93.08,512,92.56,512,92ZM27,27.08a34.29,34.29,0,0,1,24.21-10h51.2V367H51.22A51.12,51.12,0,0,0,17.09,380V51.22A34.18,34.18,0,0,1,27,27.08ZM312.36,391.53l-18.07-39.61,54.63-3.6,1.73,4.57Zm-35.18-36,7.08,15.53-54.34,24.79A8.53,8.53,0,1,0,237,411.36l54.35-24.79,7.08,15.53L187,452.93l-.15.07-43.68,19.93-7.08-15.53,62.11-28.33a8.53,8.53,0,0,0-7.08-15.53L129,441.87l-7.08-15.53ZM96.57,494.17A8.53,8.53,0,0,1,85.27,490L71.1,458.89a8.55,8.55,0,0,1,4.22-11.31l31.06-14.16L117,456.7h0L127.63,480Zm133-41.89,83.73-38.19a8.14,8.14,0,0,0,1.21-.88,8.42,8.42,0,0,0,1.32-.88l46.73-47.19a17,17,0,0,0,3.9-19.57l-2-4.33a17,17,0,0,0-17-9.93l-66.61,4.39a8.53,8.53,0,0,0-2.68.68c-.1,0-.21,0-.3.07L68.24,432.06a25.54,25.54,0,0,0-14.7,20.22h-.27a35.77,35.77,0,0,1-36.18-34.14V416.9A34,34,0,0,1,51.22,384h51.2A17.08,17.08,0,0,0,119.49,367V59.75H460.81a34,34,0,0,1,34.12,32.89,32.77,32.77,0,0,1-9.51,24A37.29,37.29,0,0,1,458.76,128H409.62a17.07,17.07,0,0,0-17.07,17.06v307.2Zm231.27,42.66H409.62V145.08h49.14A54.33,54.33,0,0,0,495,131V460.81A34.17,34.17,0,0,1,460.81,494.94Z"/>
  <text class="cls-2" transform="translate(-41.05 259.76)">#F19F4D</text>
</svg>
