<svg id="Capa_1" data-name="Capa 1" xmlns="http://www.w3.org/2000/svg" width="512" height="512" viewBox="0 0 512 512">
  <defs>
    <style>
      .cls-1 {
        fill: #f19f4d;
      }

      .cls-2 {
        font-size: 12px;
        font-family: MyriadPro-Regular, Myriad Pro;
      }
    </style>
  </defs>
  <g>
    <path class="cls-1" d="M296,232a10,10,0,1,0,10,10A10,10,0,0,0,296,232Z"/>
    <path class="cls-1" d="M256,172a10,10,0,1,0,10,10A10,10,0,0,0,256,172Z"/>
    <path class="cls-1" d="M136,432a10,10,0,1,0,10,10A10,10,0,0,0,136,432Z"/>
    <path class="cls-1" d="M454.42,407.68,326,179.38V58.29A30,30,0,0,0,316,0H196a30,30,0,0,0-10,58.29V179.38L57.58,407.68a70,70,0,0,0,61,104.32H393.41a70,70,0,0,0,61-104.32ZM204.72,186.9A10,10,0,0,0,206,182V60h10a10,10,0,0,0,0-20H196a10,10,0,0,1,0-20H316a10,10,0,0,1,0,20H296a10,10,0,0,0,0,20h10V182a10,10,0,0,0,1.28,4.9l59,104.79A192.76,192.76,0,0,0,261.4,313.12C219,335,171.88,338.9,127.4,324.35ZM436.57,467.24A49.54,49.54,0,0,1,393.41,492H118.59A50,50,0,0,1,75,417.48l42.4-75.39a191.79,191.79,0,0,0,63.44,10.81q4.8,0,9.61-.24a194.16,194.16,0,0,0,80.13-21.78c33.79-17.5,71-23.54,107.78-17.58L437,417.48A49.51,49.51,0,0,1,436.57,467.24Z"/>
    <path class="cls-1" d="M216,232a30,30,0,1,0,30,30A30,30,0,0,0,216,232Zm0,40a10,10,0,1,1,10-10A10,10,0,0,1,216,272Z"/>
    <path class="cls-1" d="M376,432H176a10,10,0,0,0,0,20H376a10,10,0,0,0,0-20Z"/>
  </g>
  <text class="cls-2" transform="translate(490.95 259.76)">#F19F4D</text>
</svg>
