<svg id="Capa_1" data-name="Capa 1" xmlns="http://www.w3.org/2000/svg" width="512" height="512" viewBox="0 0 512 512">
  <defs>
    <style>
      .cls-1 {
        fill: #f19f4d;
      }
    </style>
  </defs>
  <g>
    <path class="cls-1" d="M206.44,181.39a44.63,44.63,0,0,0-3.37-63.11,44.75,44.75,0,0,0-74.61,35.62,44.79,44.79,0,0,0,78,27.49Zm-58-28.56A24.76,24.76,0,1,1,191.57,168a24.83,24.83,0,0,1-35,1.85A24.49,24.49,0,0,1,148.43,152.83Z"/>
    <path class="cls-1" d="M295.12,260.91a44.75,44.75,0,1,0,63.19-3.39h0a44.88,44.88,0,0,0-63.18,3.4ZM310,274.3a24.61,24.61,0,1,1-6.31,17.8A24.47,24.47,0,0,1,310,274.3Z"/>
    <path class="cls-1" d="M320.94,143.18a44.74,44.74,0,0,0-74.58,35.62,44.75,44.75,0,1,0,74.58-35.62ZM309.47,192.9a24.79,24.79,0,0,1-35,1.85,24.62,24.62,0,0,1-1.86-34.83,24.76,24.76,0,0,1,43.13,15.2,24.43,24.43,0,0,1-6.29,17.78Z"/>
    <path class="cls-1" d="M75.38,249.94a57.46,57.46,0,1,0,81.05,5.62,57.55,57.55,0,0,0-81.06-5.62Zm75.09,45.85a37.19,37.19,0,0,1-12.78,25.64,37.6,37.6,0,0,1-52.88-3.66,37.43,37.43,0,0,1,56.54-49.06h0a37,37,0,0,1,9.11,27.07Z"/>
    <path class="cls-1" d="M476.06,75.88c-13.07-18-11.52-37.38-10.51-50.23C466.3,16.24,467,7.36,459.14,3c-8.22-4.5-16.91,1.23-28.28,9.81C406,31.6,389.66,50.7,376.21,76.72a157,157,0,0,0-14.65,42.1A214.47,214.47,0,0,0,257.64,61.56a10,10,0,0,0-4.39,19.52,194.53,194.53,0,0,1,106,64.83c.62,19.25,6.51,37.2,19.87,50.29v31.89c0,9.95,8.58,18,19.14,18h.95v67.31a193.51,193.51,0,0,1-71.34,110l-.28.23c-9.76,8-17.82,11.43-24,10.21-10.31-2.07-19.39-17.67-27.8-33.46-16.32-30.66-37.7-45.55-65.35-45.55s-49,14.9-65.35,45.54c-8.42,15.8-17.49,31.4-27.81,33.46-6.14,1.23-14.21-2.2-24-10.2l-.28-.23A191.83,191.83,0,0,1,16.79,269.7c0-89.64,63.48-169,151-188.62a10,10,0,0,0-4.38-19.52A213.48,213.48,0,0,0-3.21,269.7,210.82,210.82,0,0,0,19.7,365.9a215.23,215.23,0,0,0,61.14,73.39c14.76,12.06,28,16.72,40.42,14.23,18.9-3.78,30.43-22.81,41.54-43.67,12.87-24.17,27.58-35,47.7-35s34.83,10.78,47.7,35c11.1,20.86,22.64,39.89,41.53,43.67a32.7,32.7,0,0,0,6.55.65c10.52,0,21.68-4.91,33.88-14.88a214.33,214.33,0,0,0,59.08-69.47V478.14a35.37,35.37,0,0,0,70.73,0v-232h1c10.55,0,19.13-8.1,19.13-18v-30a36.74,36.74,0,0,0,16.48-21.58c8.67-28.65-9.06-71.16-30.48-100.59ZM394,85.91c12.15-23.49,26.32-40,48.93-57.08.9-.68,1.73-1.29,2.49-1.85-1.12,15-1.82,38.24,14.5,60.68,21.2,29.11,33,64.8,27.51,83-1.63,5.4-4.64,9-9.35,11.11H393c-21.09-21-15.81-63.49.94-95.87Zm40.64,407.55a15.36,15.36,0,0,1-15.37-15.32V432.31H450v45.83a15.36,15.36,0,0,1-15.36,15.32ZM450,412.31H419.24V246.14H450Zm20.08-186.18H399.15V201.78h70.91Z"/>
    <path class="cls-1" d="M210.5,76.36a10,10,0,0,0,0-20h0a10,10,0,0,0,0,20Z"/>
  </g>
</svg>
