<svg id="Capa_1" data-name="Capa 1" xmlns="http://www.w3.org/2000/svg" width="512" height="512" viewBox="0 0 512 512">
  <defs>
    <style>
      .cls-1 {
        fill: #f19f4d;
      }
    </style>
  </defs>
  <g>
    <path class="cls-1" d="M250.6,267a9.72,9.72,0,0,0,5.4,1.6,9.49,9.49,0,0,0,5.4-1.6c3.8-2.4,92.5-60.4,92.5-118.4,0-34.7-27.3-62.8-60.9-62.8a60.07,60.07,0,0,0-37,12.9,59.86,59.86,0,0,0-37-12.9c-33.6,0-60.9,28.2-60.9,62.8C158.1,206.55,246.8,264.55,250.6,267ZM219,105.65A39.57,39.57,0,0,1,248.6,119a9.95,9.95,0,0,0,14.8,0,39.57,39.57,0,0,1,29.6-13.3c22.6,0,40.9,19.2,40.9,42.8,0,36.4-51.9,80-77.9,98-25.9-18-77.9-61.6-77.9-98C178.1,125,196.5,105.65,219,105.65Z"/>
    <path class="cls-1" d="M256,45.25a10,10,0,0,0,10-10V10a10,10,0,1,0-20,0v25.3A10,10,0,0,0,256,45.25Z"/>
    <path class="cls-1" d="M256,285.75a10,10,0,0,0-10,10v25.3a10,10,0,0,0,20,0v-25.3A10,10,0,0,0,256,285.75Z"/>
    <path class="cls-1" d="M376.3,165.55a10,10,0,0,0,10,10h25.3a10,10,0,0,0,0-20H386.3A10,10,0,0,0,376.3,165.55Z"/>
    <path class="cls-1" d="M100.4,175.55h25.3a10,10,0,0,0,0-20H100.4a10,10,0,0,0,0,20Z"/>
    <path class="cls-1" d="M355.2,250.55a10,10,0,0,0-14.1,14.1L363.4,287a9.82,9.82,0,0,0,7.1,2.9,10.24,10.24,0,0,0,7.1-2.9,10,10,0,0,0,0-14.1Z"/>
    <path class="cls-1" d="M156.8,80.55a9.82,9.82,0,0,0,7.1,2.9,10.24,10.24,0,0,0,7.1-2.9,10,10,0,0,0,0-14.1l-22-22a10,10,0,1,0-14.1,14.1Z"/>
    <path class="cls-1" d="M156.8,250.55l-22.6,22.6a10,10,0,0,0,0,14.1,9.82,9.82,0,0,0,7.1,2.9,10.24,10.24,0,0,0,7.1-2.9l22.6-22.6a10,10,0,0,0,0-14.1A10.08,10.08,0,0,0,156.8,250.55Z"/>
    <path class="cls-1" d="M348.1,83.45a10.24,10.24,0,0,0,7.1-2.9l22-22a10,10,0,0,0-14.1-14.1l-22,22a10,10,0,0,0,0,14.1A9.84,9.84,0,0,0,348.1,83.45Z"/>
    <path class="cls-1" d="M478.2,162.45a33.82,33.82,0,0,0-33.8,33.8v85a109.7,109.7,0,0,1-9.4,44.3,38.46,38.46,0,0,0-14.7-15.5,39.31,39.31,0,0,0-47.6,5.8l-39.3,38.7a126.24,126.24,0,0,0-37.5,89.6V502a10,10,0,0,0,20,0v-57.9a106.12,106.12,0,0,1,31.6-75.3l39.3-38.7a19.19,19.19,0,0,1,23.3-2.8,19.46,19.46,0,0,1,9.2,13.4,19.16,19.16,0,0,1-4.3,15.6l-41.7,49.4a10,10,0,0,0,15.3,12.9l45.1-53.7a129.5,129.5,0,0,0,30.7-83.7v-85a13.8,13.8,0,0,1,27.6,0v28.2a10,10,0,1,0,20,0v-28.2A33.87,33.87,0,0,0,478.2,162.45Z"/>
    <path class="cls-1" d="M502,304.45a10,10,0,0,0-10,10v32.9A102.91,102.91,0,0,1,478.1,399l-56.8,98a10.07,10.07,0,0,0,3.6,13.7,9.93,9.93,0,0,0,13.7-3.6l56.8-98a122.4,122.4,0,0,0,16.6-61.6v-32.9A10.05,10.05,0,0,0,502,304.45Z"/>
    <path class="cls-1" d="M139.3,315.85a39.24,39.24,0,0,0-62.3,9.7,110.42,110.42,0,0,1-9.4-44.3v-85a33.8,33.8,0,1,0-67.6,0v151.2a122.4,122.4,0,0,0,16.6,61.6l56.8,98a10.06,10.06,0,0,0,8.7,5,9.26,9.26,0,0,0,5-1.4A10,10,0,0,0,90.7,497L33.9,399A102.55,102.55,0,0,1,20,347.45V196.25a13.8,13.8,0,0,1,27.6,0v85A129.7,129.7,0,0,0,78.3,365l45.1,53.7a10,10,0,1,0,15.3-12.9L97,356.35a19.27,19.27,0,0,1,28.2-26.2l39.3,38.7a106.12,106.12,0,0,1,31.6,75.3V502a10,10,0,0,0,20,0v-57.9a126.66,126.66,0,0,0-37.5-89.6Z"/>
    <path class="cls-1" d="M502,259.45a10,10,0,0,0-10,10v.3a10,10,0,0,0,20,0v-.3A10,10,0,0,0,502,259.45Z"/>
  </g>
</svg>
