<svg xmlns="http://www.w3.org/2000/svg" width="3in" height="3in" viewBox="0 0 216 216">
  <defs>
    <style>
      .cls-1 {
        fill: #f19f4d;
      }
    </style>
  </defs>
  <g id="Layer_4" data-name="Layer 4">
    <g>
      <g>
        <path class="cls-1" d="M191.47,17.31H24.4a24.08,24.08,0,0,0-24,24v133.3a24.08,24.08,0,0,0,24,24H191.48a24.07,24.07,0,0,0,24-24V41.35a24.08,24.08,0,0,0-24.05-24ZM202,174.65a10.54,10.54,0,0,1-10.53,10.52H24.4a10.54,10.54,0,0,1-10.53-10.52V41.35A10.54,10.54,0,0,1,24.4,30.83H191.48A10.53,10.53,0,0,1,202,41.35v133.3Z"/>
        <circle class="cls-1" cx="31.34" cy="47.95" r="7.04"/>
        <circle class="cls-1" cx="52" cy="47.95" r="7.04"/>
        <circle class="cls-1" cx="72.67" cy="47.95" r="7.04"/>
      </g>
      <g>
        <path class="cls-1" d="M91.5,127.76a6.93,6.93,0,0,0,7-.14l33.76-20.78a6.92,6.92,0,0,0,2.26-9.52,6.81,6.81,0,0,0-2.26-2.27L98.51,74.28A6.91,6.91,0,0,0,88,80.17v41.55A6.9,6.9,0,0,0,91.5,127.76Zm10.3-35.2L115.42,101l-13.62,8.38Z"/>
        <path class="cls-1" d="M157.2,140H143.35a6.93,6.93,0,1,0-13.85,0H60.26a6.93,6.93,0,1,0,0,13.85H129.5a6.93,6.93,0,0,0,13.85,0H157.2a6.93,6.93,0,0,0,0-13.85Z"/>
      </g>
    </g>
  </g>
</svg>
