<svg xmlns="http://www.w3.org/2000/svg" width="3in" height="3in" viewBox="0 0 216 216">
  <defs>
    <style>
      .cls-1 {
        fill: #f19f4d;
      }
    </style>
  </defs>
  <g id="Layer_2" data-name="Layer 2">
    <g>
      <path class="cls-1" d="M191.56,17.29H24.44a24.08,24.08,0,0,0-24,24.05V174.66a24.08,24.08,0,0,0,24.05,24.05H191.56a24.08,24.08,0,0,0,24.05-24.05V41.34a24.08,24.08,0,0,0-24.05-24.05Zm10.53,157.37a10.54,10.54,0,0,1-10.53,10.53H24.44a10.54,10.54,0,0,1-10.53-10.53V41.34A10.54,10.54,0,0,1,24.44,30.81H191.56a10.54,10.54,0,0,1,10.53,10.53V174.66Z"/>
      <circle class="cls-1" cx="31.38" cy="47.94" r="7.04"/>
      <circle class="cls-1" cx="52.05" cy="47.94" r="7.04"/>
      <circle class="cls-1" cx="72.72" cy="47.94" r="7.04"/>
      <path class="cls-1" d="M95.16,141.44a10.48,10.48,0,1,1-14.82-14.82l11.38-11.39a10.5,10.5,0,0,1,14.83,0,6.76,6.76,0,0,0,9.56-9.56,24,24,0,0,0-33.95,0L70.78,117.06c-15,15-4.38,41,17,41a23.92,23.92,0,0,0,17-7,6.76,6.76,0,0,0-9.56-9.56Z"/>
      <path class="cls-1" d="M111.28,87.06a6.76,6.76,0,0,0,9.56,9.56,10.48,10.48,0,1,1,14.82,14.82l-11.38,11.38a10.48,10.48,0,0,1-14.83,0,6.76,6.76,0,0,0-9.56,9.56,24,24,0,0,0,34,0L145.22,121a23.81,23.81,0,0,0,7-17c0-21.33-25.95-32-41-17Z"/>
    </g>
  </g>
</svg>
