<?xml version="1.0" encoding="UTF-8"?>
<svg width="203px" height="60px" viewBox="0 0 203 60" version="1.1" xmlns="http://www.w3.org/2000/svg" xmlns:xlink="http://www.w3.org/1999/xlink">
    <title>9AA8F171-F6CC-444B-935C-3575BB213249@1.5x</title>
    <defs>
        <ellipse id="path-1" cx="28.8462121" cy="29.3435606" rx="28.8462121" ry="29.3435606"></ellipse>
    </defs>
    <g id="测试结果截屏" stroke="none" stroke-width="1" fill="none" fill-rule="evenodd">
        <g id="截图分享" transform="translate(-59.000000, -971.000000)">
            <g id="Logo" transform="translate(59.000000, 971.000000)">
                <g id="Group" transform="translate(0.000000, 0.541045)">
                    <mask id="mask-2" fill="white">
                        <use xlink:href="#path-1"></use>
                    </mask>
                    <use id="Mask" fill="#F19F4D" fill-rule="nonzero" xlink:href="#path-1"></use>
                    <path d="M61.8886364,62.0393939 C63.1417852,60.1724154 64.109209,58.1228276 64.7578788,55.9606061 C65.0387896,55.026674 65.2618535,54.0757425 65.4257576,53.1134091 L69.5516667,53.1134091 L69.5516667,47.4726515 L69.3363636,47.4726515 L69.3363636,47.244697 L69.1210606,47.244697 L69.1210606,47.0212121 L68.9057576,47.0212121 L68.9057576,46.7932576 L68.6860606,46.7932576 L68.6860606,46.565303 L68.4707576,46.565303 L68.4707576,46.3373485 L68.2554545,46.3373485 L68.2554545,46.1093939 L68.0357576,46.1093939 L68.0357576,45.8814394 L67.8204545,45.8814394 L67.8204545,45.6579545 L67.6051515,45.6579545 L67.6051515,45.43 L67.3898485,45.43 L67.3898485,45.2020455 L67.1701515,45.2020455 L67.1701515,44.9740909 L66.9548485,44.9740909 L66.9548485,44.7461364 L66.7395455,44.7461364 L66.7395455,44.5181818 L66.5242424,44.5181818 L66.5242424,44.294697 L66.3045455,44.294697 L66.3045455,44.0667424 L66.0892424,44.0667424 L66.0892424,43.8387879 L65.8739394,43.8387879 L65.8739394,43.6108333 L65.6586364,43.6108333 L65.6586364,43.3828788 L65.4389394,43.3828788 L65.4389394,43.1549242 L65.2236364,43.1549242 L65.2236364,42.9314394 L65.030303,42.9314394 L65.030303,42.7034848 L64.815,42.7034848 L64.815,42.4621212 L64.5909091,42.4621212 L64.5909091,42.2341667 L64.3756061,42.2341667 L64.3756061,42.0151515 L64.1515152,42.0151515 L64.1515152,41.7916667 L63.9362121,41.7916667 L63.9362121,41.5681818 L63.7121212,41.5681818 L63.7121212,41.3402273 L63.4968182,41.3402273 L63.4968182,41.1212121 L63.2727273,41.1212121 L63.2727273,40.8932576 L63.0574242,40.8932576 L63.0574242,40.6742424 L62.8333333,40.6742424 L62.8333333,40.4462879 L62.6180303,40.4462879 L62.6180303,40.2272727 L62.3939394,40.2272727 L62.3939394,39.9993182 L62.1786364,39.9993182 L62.1786364,39.7713636 L61.9589394,39.7713636 L61.9589394,39.5434091 L61.7436364,39.5434091 L61.7436364,39.3154545 L61.5283333,39.3154545 L61.5283333,39.0651515 L61.3130303,39.0651515 L61.3130303,38.8416667 L61.0933333,38.8416667 L61.0933333,38.6137121 L60.8780303,38.6137121 L60.8780303,38.3857576 L60.6627273,38.3857576 L60.6627273,38.157803 L60.4474242,38.157803 L60.4474242,37.9298485 L60.2277273,37.9298485 L60.2277273,37.7018939 L60.0124242,37.7018939 L60.0124242,37.4784091 L59.7971212,37.4784091 L59.7971212,37.2504545 L59.5818182,37.2504545 L59.5818182,37.0225 L59.3621212,37.0225 L59.3621212,36.7945455 L59.1951515,36.7945455 C59.1951515,36.7587879 59.16,36.7230303 59.1468182,36.6872727 L59.1468182,36.5665909 L59.0940909,36.5665909 C59.0193939,36.3833333 58.944697,36.1956061 58.8568182,36.0078788 C58.4315827,35.1350221 57.8740668,34.3356127 57.204697,33.6389394 C57.1343939,33.5584848 57.059697,33.4869697 56.9893939,33.4109848 L56.769697,33.1830303 C56.7037879,33.1070455 56.624697,33.0310606 56.5543939,32.9550758 L56.3390909,32.7315909 C56.2687879,32.6511364 56.1940909,32.5796212 56.1237879,32.5036364 C56.0534848,32.4276515 55.9787879,32.3516667 55.9040909,32.2756818 C55.8293939,32.199697 55.7590909,32.1237121 55.6887879,32.0477273 L55.4734848,31.8197727 L55.2537879,31.5918182 C55.1878788,31.5158333 55.1131818,31.4398485 55.0384848,31.3638636 C54.9637879,31.2878788 54.8934848,31.2163636 54.8231818,31.1403788 C54.7528788,31.0643939 54.6781818,30.9884091 54.6078788,30.9124242 C54.5375758,30.8364394 54.4628788,30.7604545 54.3881818,30.6844697 C54.3134848,30.6084848 54.2475758,30.5325 54.1728788,30.4565152 L53.9575758,30.2285606 L53.7422727,30.0006061 C53.6719697,29.9246212 53.5972727,29.8531061 53.5225758,29.7771212 C53.4478788,29.7011364 53.3819697,29.6251515 53.3072727,29.5491667 C53.2325758,29.4731818 53.1622727,29.397197 53.0919697,29.3212121 L52.8766667,29.0932576 L52.6569697,28.865303 C52.5910606,28.7893182 52.5163636,28.7133333 52.4416667,28.6373485 L52.2263636,28.4138636 C52.1560606,28.3334091 52.0813636,28.2618939 52.0110606,28.1859091 C51.9407576,28.1099242 51.8660606,28.0339394 51.7913636,27.9579545 C51.7166667,27.8819697 51.6507576,27.8059848 51.5760606,27.73 L51.3607576,27.5020455 L51.1454545,27.2740909 C51.0751515,27.1981061 51.0004545,27.1265909 50.9257576,27.0506061 C50.8510606,26.9746212 50.7851515,26.8986364 50.7104545,26.8226515 C50.6357576,26.7466667 50.5654545,26.6706818 50.4951515,26.594697 L50.2798485,26.3667424 L50.0601515,26.1387879 C49.9942424,26.062803 49.9195455,25.9868182 49.8448485,25.9108333 L49.6295455,25.6873485 C49.5592424,25.6068939 49.4845455,25.5353788 49.4142424,25.4593939 C49.3439394,25.3834091 49.2692424,25.3074242 49.1945455,25.2314394 C49.1198485,25.1554545 49.0495455,25.0794697 48.9792424,25.0034848 L48.7639394,24.7755303 L48.5486364,24.5475758 C48.4783333,24.4715909 48.4036364,24.4000758 48.3289394,24.3240909 C48.2542424,24.2481061 48.1839394,24.1721212 48.1136364,24.0961364 C48.0433333,24.0201515 47.9686364,23.9441667 47.8983333,23.8681818 L47.6830303,23.6402273 L47.4633333,23.4122727 C47.3974242,23.3362879 47.3183333,23.260303 47.2480303,23.1843182 L47.0327273,22.9608333 C46.9624242,22.8803788 46.8877273,22.8088636 46.8174242,22.7328788 C46.7471212,22.6568939 46.6724242,22.5809091 46.5977273,22.5049242 C46.5230303,22.4289394 46.4527273,22.3529545 46.3824242,22.2769697 L46.1671212,22.0490152 L45.9518182,21.8210606 L45.7321212,21.5975758 C45.6662121,21.5171212 45.5871212,21.4456061 45.5168182,21.3696212 C45.4465152,21.2936364 45.3718182,21.2176515 45.3015152,21.1416667 L45.0862121,20.9137121 L44.8665152,20.6857576 C44.8006061,20.6097727 44.7215152,20.5337879 44.6512121,20.457803 L44.4359091,20.2343182 C44.3656061,20.1538636 44.2909091,20.0823485 44.2206061,20.0063636 C44.150303,19.9303788 44.0756061,19.8543939 44.0009091,19.7784091 C43.9262121,19.7024242 43.8559091,19.6264394 43.7856061,19.5504545 L43.570303,19.3225 L43.3506061,19.0945455 C43.284697,19.0185606 43.21,18.9470455 43.135303,18.8710606 C43.0606061,18.7950758 42.990303,18.7190909 42.92,18.6431061 C42.849697,18.5671212 42.775,18.4911364 42.704697,18.4151515 L42.485,18.187197 C42.4190909,18.1112121 42.3443939,18.0352273 42.269697,17.9592424 L42.0543939,17.7312879 L41.8390909,17.507803 C41.7687879,17.4273485 41.6940909,17.3558333 41.6193939,17.2798485 C41.544697,17.2038636 41.4787879,17.1278788 41.4040909,17.0518939 L41.1887879,16.8239394 L40.9734848,16.5959848 L40.7537879,16.3680303 C40.6878788,16.2920455 40.6131818,16.2205303 40.5384848,16.1445455 C40.4637879,16.0685606 40.3934848,15.9925758 40.3231818,15.9165909 C40.2528788,15.8406061 40.1781818,15.7646212 40.1078788,15.6886364 L39.8881818,15.4606818 C39.8222727,15.384697 39.7475758,15.3087121 39.6728788,15.2327273 L39.4575758,15.0047727 L39.2422727,14.7812879 C39.1719697,14.7008333 39.0972727,14.6293182 39.0225758,14.5533333 C38.9478788,14.4773485 38.8819697,14.4013636 38.8072727,14.3253788 L38.5919697,14.0974242 L38.3942424,13.8560606 L38.1745455,13.6281061 C38.1086364,13.5521212 38.0295455,13.4806061 37.9592424,13.4046212 C37.8889394,13.3286364 37.8142424,13.2526515 37.7439394,13.1766667 C37.6736364,13.1006818 37.5989394,13.024697 37.5286364,12.9487121 L37.3089394,12.7207576 C37.2430303,12.6447727 37.1639394,12.5687879 37.0936364,12.492803 L36.8783333,12.2648485 L36.6630303,12.0413636 C36.5927273,11.9609091 36.5180303,11.8893939 36.4433333,11.8134091 C36.3686364,11.7374242 36.2983333,11.6614394 36.2280303,11.5854545 L36.030303,11.3709091 L35.815,11.1429545 L35.595303,10.915 C35.3843939,10.6781061 35.1559091,10.4456818 34.9230303,10.2266667 C33.9796122,9.368947 32.8874025,8.69747208 31.7022727,8.24659091 C30.3408394,7.73169681 28.8968273,7.4800571 27.4445455,7.50462121 C25.851684,7.47604953 24.2675931,7.75042763 22.7737879,8.31363636 C21.4946225,8.80249227 20.3247612,9.54721169 19.3333333,10.5037879 C18.3982951,11.4133114 17.6643464,12.5149318 17.180303,13.7353788 C16.68521,14.9806664 16.4329999,16.3120382 16.4377273,17.655303 C16.4418381,18.9893685 16.6615357,20.313671 17.0880303,21.5752273 C17.5868458,23.0170006 18.2979812,24.3733687 19.1971212,25.5979545 C18.0662753,26.1346395 16.9965725,26.7956207 16.0071212,27.5690909 C15.0562373,28.3045696 14.2090894,29.1693314 13.4893939,30.1391667 C12.7929615,31.0833379 12.2377057,32.1271423 11.8416667,33.2366667 C11.4384334,34.369936 11.2361045,35.5670059 11.2440909,36.772197 C11.2180533,38.4159 11.5749048,40.0425259 12.2854545,41.5190152 C12.8203401,42.6006686 13.5170154,43.5913224 14.3506061,44.4556061 L14.570303,44.6790909 C14.6406061,44.7595455 14.7109091,44.8310606 14.7856061,44.9070455 L15.0009091,45.135 L15.2162121,45.3629545 L15.4359091,45.5909091 L15.6512121,45.8188636 C15.7215152,45.8948485 15.7918182,45.9708333 15.8665152,46.0423485 C15.9412121,46.1138636 16.0115152,46.1943182 16.0818182,46.270303 L16.3015152,46.4982576 L16.5168182,46.7262121 L16.7321212,46.9541667 L16.9474242,47.1821212 C17.0177273,47.2581061 17.0924242,47.3340909 17.1671212,47.4056061 C17.2418182,47.4771212 17.3077273,47.5575758 17.3824242,47.6335606 L17.5977273,47.8615152 L17.8130303,48.0894697 L18.0327273,48.3174242 L18.2480303,48.5453788 L18.4633333,48.7688636 C18.5336364,48.8493182 18.6083333,48.9208333 18.6786364,48.9968182 C18.7489394,49.072803 18.8236364,49.1487879 18.8983333,49.2247727 L19.1136364,49.4527273 L19.3289394,49.6806818 L19.5442424,49.9086364 L19.7639394,50.1321212 C19.8342424,50.2125758 19.9045455,50.2840909 19.9792424,50.3600758 L20.1945455,50.5880303 L20.4098485,50.8159848 L20.6295455,51.0439394 L20.8448485,51.2718939 L21.0601515,51.4953788 C21.1304545,51.5758333 21.2051515,51.6473485 21.2754545,51.7233333 C21.3457576,51.7993182 21.4204545,51.875303 21.4951515,51.9512879 L21.7104545,52.1792424 L21.9257576,52.407197 L22.1410606,52.6351515 C22.2157576,52.7111364 22.2860606,52.7871212 22.3607576,52.8586364 C22.4354545,52.9301515 22.5013636,53.0106061 22.5760606,53.0865909 L22.7913636,53.3145455 L23.0066667,53.5425 L23.2263636,53.7704545 L23.4416667,53.9984091 L23.6569697,54.2218939 C23.7272727,54.3023485 23.8019697,54.3738636 23.8722727,54.4498485 L24.0919697,54.677803 L24.3072727,54.9057576 L24.5225758,55.1337121 L24.7378788,55.3616667 C24.8125758,55.4376515 24.8828788,55.5136364 24.9575758,55.5851515 C25.0322727,55.6566667 25.0981818,55.7371212 25.1728788,55.8131061 C25.2475758,55.8890909 25.3178788,55.9650758 25.3881818,56.0410606 L25.6034848,56.2690152 L25.8231818,56.4969697 L26.0384848,56.7249242 L26.2537879,56.9484091 C26.3240909,57.0288636 26.3987879,57.1003788 26.4734848,57.1763636 C26.5481818,57.2523485 26.6140909,57.3283333 26.6887879,57.4043182 L26.9040909,57.6322727 L27.1193939,57.8602273 L27.334697,58.0881818 L27.5543939,58.3116667 C27.624697,58.3921212 27.695,58.4636364 27.769697,58.5396212 C27.8443939,58.6156061 27.914697,58.6915909 27.985,58.7675758 L28.204697,58.9955303 L28.42,59.2234848 L28.635303,59.4514394 L28.8506061,59.6749242 C28.9209091,59.7553788 28.9956061,59.8268939 29.070303,59.9028788 C29.145,59.9788636 29.2109091,60.0548485 29.2856061,60.1308333 L29.5009091,60.3587879 L29.7162121,60.5867424 L29.9359091,60.814697 C30.0062121,60.8906818 30.0765152,60.9666667 30.1512121,61.0381818 C30.2259091,61.109697 30.2962121,61.1946212 30.3665152,61.2661364 C30.4368182,61.3376515 30.5115152,61.4181061 30.5818182,61.4940909 L30.8015152,61.7220455 L31.0168182,61.95 L31.2321212,62.1779545 L31.4474242,62.4014394 C31.5177273,62.4818939 31.5924242,62.5534091 31.6671212,62.6293939 C31.7418182,62.7053788 31.8077273,62.7813636 31.8824242,62.8573485 L32.0977273,63.085303 L32.3130303,63.3132576 L32.5327273,63.5412121 C32.6030303,63.617197 32.6733333,63.6931818 32.7480303,63.764697 C32.8227273,63.8362121 32.8930303,63.9211364 32.9633333,63.9926515 C33.0336364,64.0641667 33.1083333,64.1446212 33.1786364,64.2206061 L33.3983333,64.4485606 L33.6136364,64.6765152 L33.8289394,64.9044697 L34.0442424,65.1279545 C34.1189394,65.2084091 34.1892424,65.2843939 34.2639394,65.3559091 C34.3386364,65.4274242 34.4045455,65.5078788 34.4792424,65.5838636 L34.6945455,65.8118182 L34.9098485,66.0397727 L35.1295455,66.2677273 C35.1998485,66.3437121 35.2701515,66.419697 35.3448485,66.4912121 C35.4195455,66.5627273 35.4898485,66.6476515 35.5601515,66.7191667 C35.6304545,66.7906818 35.7051515,66.8711364 35.7754545,66.9471212 L35.9951515,67.1750758 C36.2704605,67.4904562 36.5639044,67.7889594 36.8739394,68.0690152 C38.0181668,69.0621989 39.3337514,69.8306037 40.7537879,70.3351515 C42.1735822,70.8529472 43.6702046,71.1190317 45.1784848,71.1218182 C47.5308652,71.1431962 49.8677558,70.7328674 52.0769697,69.9105303 C54.1666287,69.1238779 56.1132848,67.9895189 57.8374242,66.5537879 L58.5843939,67.3359848 L58.5843939,67.3359848 L61.7831818,70.6882576 L70.0921212,70.6882576 L61.8886364,62.0393939 Z" id="Path" fill="#8A5725" fill-rule="nonzero" mask="url(#mask-2)"></path>
                </g>
                <path d="M49,47.1138999 L40.580438,38.6148764 C41.8651125,36.775772 42.8574407,34.7583703 43.5238988,32.6308252 C43.8125179,31.713613 44.0417042,30.7796521 44.2101044,29.8344574 L48.4537442,29.8344574 L48.4537442,24.2856899 L34.3910442,24.2856899 L34.3910442,29.8344574 L38.4541036,29.8344574 C38.3638134,30.2345667 38.2644942,30.6390727 38.1471169,31.0347851 C37.7835957,32.2807476 37.2904642,33.4873261 36.6753865,34.6357682 L25.9895403,23.8372158 C25.44019,23.294625 24.9246172,22.720552 24.4455777,22.1180652 C24.0590192,21.6304573 23.7190174,21.1094684 23.4298129,20.5615963 C23.1830547,20.0871099 22.9965854,19.5851053 22.8745281,19.0666827 C22.7613207,18.5507944 22.7053208,18.024558 22.7074912,17.4970235 C22.7053118,16.8641654 22.8184221,16.2359486 23.041565,15.6415719 C23.2544104,15.0713788 23.5795178,14.5471454 23.9986412,14.0982934 C24.4341227,13.6477975 24.9595217,13.2887095 25.5426037,13.0430603 C26.2024524,12.7731659 26.9127324,12.6399045 27.6283076,12.6517447 C28.2150713,12.6399152 28.7987897,12.7369032 29.348336,12.937537 C29.8270894,13.1125072 30.2703125,13.3685304 30.6575441,13.6937874 C31.0318483,14.0142538 31.3544885,14.3877702 31.6146203,14.8017822 C31.8345684,15.147405 32.0204898,15.512497 32.1699051,15.8921897 L32.6981028,17.4530554 L34.6619148,17.0221686 L38.3999295,16.2571245 C38.3058952,15.1261308 37.9902065,14.0231631 37.4699403,13.0078859 C36.9350865,11.9536123 36.1997704,11.0077049 35.3029753,10.2203117 C34.3336696,9.3765798 33.2114893,8.71605536 31.9938392,8.27252721 C30.5950477,7.76603005 29.1114115,7.51849411 27.6192785,7.54265763 C25.9917882,7.51783573 24.3737249,7.7876877 22.847441,8.33847928 C21.5331749,8.81936287 20.3312123,9.55193734 19.3125793,10.4929136 C18.3518833,11.3876045 17.5977948,12.4712596 17.1004692,13.6718034 C16.5917907,14.8967827 16.3326599,16.2064423 16.3375169,17.5278011 C16.3417406,18.8401105 16.5674667,20.1428161 17.0056645,21.3837988 C17.5181677,22.8020595 18.2488168,24.1363079 19.1726295,25.340923 C18.0107529,25.8688557 16.9116971,26.5190575 15.8950949,27.2799139 C14.9181184,28.0033984 14.0477245,28.8540575 13.3082804,29.8080766 C12.5927377,30.7368502 12.0222455,31.7636321 11.615339,32.8550623 C11.2010409,33.9698501 10.99316,35.1473981 11.0013656,36.3329348 C10.9746135,37.9498321 11.3412571,39.5499309 12.0713046,41.0023414 C12.7600501,42.347281 13.7196158,43.5435015 14.8928736,44.5197851 C16.0613508,45.5015809 17.4069296,46.2634277 18.8611283,46.7665523 C20.3198822,47.2759038 21.8575724,47.5376489 23.4072403,47.5403899 C25.8240187,47.5595997 28.2247032,47.1560182 30.4950217,46.3488559 C32.6420215,45.5750323 34.6420945,44.4591726 36.4135449,43.0468555 L37.1810117,43.8118996 L37.1810117,43.8118996 L40.4675753,47.1138999 L49,47.1138999 Z M29.100038,41.4903867 C27.6666806,41.9977931 26.1511736,42.2495014 24.6261581,42.2334467 C23.7480154,42.2413281 22.8758332,42.0923032 22.0528872,41.7937662 C21.2704061,41.5108724 20.5536806,41.0788956 19.9446108,40.5230897 C19.326688,39.9553408 18.8376594,39.2678824 18.5089965,38.5049563 C18.1475375,37.656885 17.9692741,36.7454032 17.9853133,35.8273022 C17.9779778,34.4955906 18.3264732,33.1849257 18.9965636,32.0240662 C19.7934749,30.72224 20.9045959,29.6295241 22.2334676,28.8407796 L32.770335,39.4019045 C31.6752338,40.2927938 30.4346336,40.9987234 29.100038,41.4903867 L29.100038,41.4903867 Z" id="Shape" fill="#FFFFFF" fill-rule="nonzero"></path>
                <path d="M74.942829,43.0886432 C74.1785379,43.0619171 73.421569,43.2325325 72.7597746,43.5806882 C72.1959945,43.900051 71.8687179,44.4730009 71.9059804,45.0753908 C71.8759989,45.6851595 72.1999627,46.2646392 72.7597746,46.602587 C73.3255623,46.955374 74.5372342,47.3344653 76.3947904,47.7398608 C77.9204384,48.008197 79.3559862,48.5963195 80.587073,49.4573763 C81.5277803,50.1954438 81.998134,51.2770143 81.998134,52.7067299 C82.0398814,54.060105 81.3791687,55.3527145 80.2138576,56.1974641 C78.8752136,57.1304033 77.2165648,57.6038964 75.5307711,57.534341 C72.7405042,57.5483525 70.0486047,56.5992472 68,54.8791549 L69.9120899,52.7902847 C71.7423791,54.2292842 73.6408356,54.9487839 75.6074592,54.9487839 C76.4357051,54.9893816 77.2564453,54.7876266 77.9490025,54.3731841 C78.5043681,54.0306979 78.8298727,53.4553526 78.8130217,52.8459879 C78.8380465,52.2588014 78.5315906,51.7005579 78.0001279,51.3652111 C77.1347441,50.8962333 76.1843246,50.5708648 75.1933435,50.4043308 C74.1674674,50.1945282 73.1567018,49.9278918 72.1667199,49.6059182 C71.5053954,49.3820376 70.8849432,49.069071 70.3262056,48.6775314 C69.2559806,47.9379166 68.7208681,46.8099267 68.7208681,45.2935617 C68.6450369,43.9190494 69.3297244,42.6008463 70.5460448,41.7796179 C71.8607325,40.9292147 73.4471355,40.4953077 75.0604175,40.5448635 C76.232356,40.5487606 77.3959254,40.7243154 78.5062693,41.0647601 C79.5766354,41.3678185 80.5753307,41.8495379 81.4510922,42.4851918 L79.820192,44.574062 C79.1822468,44.0860544 78.4435853,43.7183705 77.6473626,43.4924914 C76.776465,43.2236832 75.8626725,43.0872332 74.942829,43.0886432 L74.942829,43.0886432 Z" id="Path" fill="#F19F4D" fill-rule="nonzero"></path>
                <path d="M90.911215,53.5213706 C91.7108135,54.3812737 92.8227771,54.8684245 93.9859813,54.8684245 C95.1491855,54.8684245 96.2611491,54.3812737 97.0607477,53.5213706 C97.8636145,52.4814038 98.2672342,51.1795788 98.1962617,49.8589115 L98.1962617,40.5410448 L101,40.5410448 L101,49.982579 C101,52.4051926 100.345794,54.2713028 99.0373832,55.5809093 C96.1699048,58.1944233 91.8300952,58.1944233 88.9626168,55.5809093 C87.6542056,54.2744737 87,52.4083636 87,49.982579 L87,40.5410448 L89.8037383,40.5410448 L89.8037383,49.8589115 C89.7248201,51.1759811 90.1183582,52.4774238 90.911215,53.5213706 L90.911215,53.5213706 Z" id="Path" fill="#F19F4D" fill-rule="nonzero"></path>
                <polygon id="Path" fill="#F19F4D" fill-rule="nonzero" points="104 40.5410448 108 40.5410448 108 57.5410448 104 57.5410448"></polygon>
                <polygon id="Path" fill="#F19F4D" fill-rule="nonzero" points="119.52551 43.1708525 119.52551 57.5410448 116.464286 57.5410448 116.464286 43.1708525 111 43.1708525 111 40.5410448 125 40.5410448 125 43.1708525"></polygon>
                <polygon id="Path" fill="#F19F4D" fill-rule="nonzero" points="150.229064 40.5410448 153 40.5410448 153 57.5410448 150.007389 57.5410448 140.770936 45.1275832 140.770936 57.5410448 138 57.5410448 138 40.5410448 140.770936 40.5410448 150.261392 53.2477755"></polygon>
                <path d="M158.106829,41.819638 C157.609395,41.6312071 157.308876,41.2642112 157.330908,40.8720747 C157.298705,40.5098315 157.486965,40.1547847 157.85009,39.8929259 C158.197163,39.6588589 158.666464,39.5320864 159.1509,39.5415378 C159.635137,39.5336956 160.105113,39.6553042 160.46312,39.8810813 C160.817066,40.1122229 161.012092,40.4367041 160.999419,40.7733702 C160.990156,41.1579849 160.806552,41.5308706 160.474531,41.8393789 L158.762939,43.5410448 L157,43.5410448 L158.106829,41.819638 Z" id="Path" fill="#F19F4D" fill-rule="nonzero"></path>
                <polygon id="Path" fill="#F19F4D" fill-rule="nonzero" points="171.523514 43.1708525 171.523514 57.5410448 168.461174 57.5410448 168.461174 43.1708525 163 43.1708525 163 40.5410448 177 40.5410448 177 43.1708525"></polygon>
                <polygon id="Path" fill="#F19F4D" fill-rule="nonzero" points="179 40.5410448 183 40.5410448 183 57.5410448 179 57.5410448"></polygon>
                <polygon id="Path" fill="#F19F4D" fill-rule="nonzero" points="202.664572 40.5410448 202.664572 43.2429679 192.282797 43.2429679 192.282797 47.7477755 201.630793 47.7477755 201.630793 50.3006602 192.282797 50.3006602 192.282797 54.8535448 203 54.8535448 203 57.5410448 189 57.5410448 189 40.5410448"></polygon>
                <path d="M74.8257389,27.7266118 C75.5785099,28.0644389 76.3312808,28.7400932 77.6751847,29.4823612 C79.8041872,30.6623771 82.5935961,30.9097997 86.1634852,30.9097997 C89.9365764,30.9097997 94.8503695,30.6718933 98,30.3340662 C97.6776369,31.1225212 97.4571563,31.9511744 97.3442118,32.7987767 C94.9519704,32.9700694 89.216133,33.1366039 86.1311576,33.1366039 C82.265702,33.1366039 79.4439655,32.7987767 77.1163793,31.4807751 C75.7724754,30.6718933 74.7564655,29.6917188 74.0036946,29.6917188 C72.8583744,29.6917188 71.1865764,31.4807751 69.5147783,33.5410448 L68,31.4712589 C69.5424877,29.8868021 71.0803571,28.5688005 72.4565887,27.9597601 L72.4565887,17.5917981 L68.0323276,17.5917981 L68.0323276,15.2127339 L74.8211207,15.2127339 L74.8257389,27.7266118 Z M73.5418719,11.3443755 C72.1457793,9.33434762 70.5397989,7.48824528 68.7527709,5.83922083 L70.5584975,4.48791234 C72.3681612,6.09389385 74.0173796,7.88233535 75.4815271,9.82653248 L73.5418719,11.3443755 Z M86.158867,13.7234397 L76.72383,13.7234397 L76.72383,11.4442962 L86.1634852,11.4442962 L86.1634852,7.36182194 C83.6742611,7.66158403 81.0511084,7.89949045 78.7235222,8.03271805 C78.6230584,7.33259964 78.4239136,6.65134571 78.1323892,6.01051345 C83.7712438,5.5680075 90.6893473,4.75912566 94.5917488,3.54104478 L95.7693966,5.6013144 C93.4175332,6.27813898 91.0180157,6.76494425 88.5926724,7.05730172 L88.5926724,11.4442962 L97.7690887,11.4442962 L97.7690887,13.7091653 L88.5926724,13.7091653 L88.5926724,17.9438997 L95.47383,17.9438997 L95.47383,27.6029004 L79.3469828,27.6029004 L79.3469828,17.9438997 L86.1634852,17.9438997 L86.158867,13.7234397 Z M93.0446429,20.0374762 L81.6376232,20.0374762 L81.6376232,25.5569052 L93.0446429,25.5569052 L93.0446429,20.0374762 Z" id="Shape" fill="#F19F4D" fill-rule="nonzero"></path>
                <path d="M108.86631,27.5814179 C109.549274,27.9392708 110.296409,28.5907466 111.533995,29.3385673 C113.679144,30.6736339 116.383499,30.9351417 119.958747,30.9351417 C123.671505,30.9351417 128.484339,30.6736339 131.770817,30.315781 C131.39016,31.1049574 131.148268,31.9539072 131.055768,32.825339 C128.841864,32.953799 123.346066,33.1510769 119.894576,33.1510769 C115.989305,33.1510769 113.289534,32.728994 111.048128,31.3572246 C109.746371,30.5451738 108.637128,29.4716152 107.889992,29.4716152 C106.817418,29.4716152 105.190222,31.3939275 103.563025,33.5410448 L102,31.4581575 C103.563025,29.7331231 105.158136,28.3292387 106.524064,27.7098779 L106.524064,17.3871986 L102.325439,17.3871986 L102.325439,15.1437363 L108.86631,15.1437363 L108.86631,27.5814179 Z M108.737968,10.7806839 C107.596639,9.54196235 105.190222,7.74811008 103.2055,6.54609142 L104.832697,5.01374702 C106.817418,6.15612353 109.255921,7.84904294 110.429335,9.0831766 L108.737968,10.7806839 Z M122.236822,4.42650127 C122.076394,4.68800914 121.879297,4.94951702 121.686784,5.2110249 C124.061115,7.91327295 128.287242,10.551291 132,11.7211946 C131.36575,12.3511028 130.828213,13.071568 130.404889,13.8591362 C126.614926,12.2685273 123.233413,9.84063807 120.513369,6.75713286 C117.874825,9.8869904 114.638043,12.457578 110.993125,14.317922 C110.553886,13.5963638 110.004888,12.9477973 109.365928,12.3956097 C113.564553,10.5604667 117.89152,7.25262147 120.169595,3.54104478 L122.236822,4.42650127 Z M116.608098,21.3281682 C115.430494,23.7460272 113.84059,25.9397794 111.909855,27.8108108 C111.336766,27.3440909 110.723175,26.9295368 110.076394,26.5720893 C111.918709,24.9597244 113.412906,22.9880089 114.467532,20.7776253 L116.608098,21.3281682 Z M119.569137,17.2908536 L119.569137,14.1022927 L114.820474,14.1022927 L114.820474,12.0469325 L126.737968,12.0469325 L126.737968,14.1022927 L121.911383,14.1022927 L121.911383,17.2908536 L130.890756,17.2908536 L130.890756,19.3645652 L121.911383,19.3645652 L121.911383,26.7693671 C121.911383,28.0035008 121.686784,28.5586316 120.806723,28.9164844 C119.926662,29.2743373 118.693659,29.2743373 116.640183,29.2743373 C116.50222,28.5640272 116.272644,27.8746672 115.957219,27.223565 C117.359817,27.25568 118.65699,27.25568 119.019099,27.223565 C119.381207,27.19145 119.569137,27.12722 119.569137,26.7372521 L119.569137,19.3645652 L111.080214,19.3645652 L111.080214,17.2908536 L119.569137,17.2908536 Z M128.869366,27.7098779 C127.656795,25.4761901 126.147247,23.4173707 124.381971,21.5896761 L126.265852,20.6721046 C128.025974,22.4338418 130.010695,24.938812 130.849503,26.6363193 L128.869366,27.7098779 Z" id="Shape" fill="#F19F4D" fill-rule="nonzero"></path>
                <path d="M165.702128,11.8846219 C164.922492,17.148912 163.696049,21.4359434 161.753799,24.9393238 C163.340426,27.7512476 165.401216,30.0100061 168,31.3929194 C167.328996,31.9814 166.760323,32.6794593 166.317629,33.45807 C163.814349,31.9049724 161.733396,29.7455461 160.262918,27.1750337 C158.279431,29.8528225 155.711207,32.0314099 152.758359,33.5410448 C152.367277,32.7507252 151.8769,32.0147696 151.299392,31.351432 C154.428179,29.9364204 157.097665,27.6560765 159,24.7733742 C157.684439,21.8744384 156.697907,18.8341585 156.059271,15.7106821 C155.467825,17.0580473 154.740576,18.3401775 153.889058,19.5367424 C153.346978,18.9901773 152.7631,18.4876969 152.142857,18.0339766 C150.690874,19.6572902 149.049741,21.0967863 147.255319,22.3210079 L147.255319,23.8929194 C149.457447,23.6624338 151.75076,23.4642163 154.016717,23.2014627 L154.016717,25.2988813 L147.255319,26.0502642 L147.255319,30.8581929 C147.255319,32.1028149 147.027356,32.7020774 146.120061,33.0524154 C145.212766,33.4027534 143.840426,33.4119729 141.784195,33.4119729 C141.639052,32.6711069 141.388743,31.9553459 141.041033,31.286896 C142.62766,31.351432 144.018237,31.319164 144.43769,31.319164 C144.857143,31.319164 144.989362,31.1854824 144.989362,30.8259249 L144.989362,26.3130177 C142.56383,26.5757713 140.297872,26.8339151 138.419453,27.0321327 L138.12766,24.8056422 C140.006079,24.6443023 142.399696,24.4138167 144.989362,24.1187952 L144.989362,21.7632329 L144.957447,21.7309649 C146.285368,20.8944625 147.52177,19.9178851 148.645897,18.8176274 L145.24924,18.8176274 C143.54456,20.396445 141.678412,21.7872022 139.682371,22.9663675 C139.155325,22.3342621 138.593654,21.7325194 138,21.1639704 C139.269776,20.4676751 140.488689,19.6804807 141.647416,18.808408 L140.835866,18.808408 L140.835866,16.8631099 L144.027356,16.8631099 C144.845897,16.1101483 145.623625,15.3130443 146.357143,14.4752796 L138.191489,14.4752796 L138.191489,12.3087153 L143.776596,12.3087153 L143.776596,9.08191755 L139.541033,9.08191755 L139.541033,6.97527956 L143.776596,6.97527956 L143.776596,3.54104478 L146.010638,3.54104478 L146.010638,6.97527956 L150.022796,6.97527956 L150.022796,9.06808841 L146.010638,9.06808841 L146.010638,12.2948862 L148.048632,12.2948862 C149.814025,9.84328105 151.244818,7.16245657 152.302432,4.32469567 L154.582067,4.94700667 C153.562968,7.52505125 152.295464,9.99546376 150.797872,12.3225445 L153.775076,12.3225445 L153.775076,14.4660601 L149.24772,14.4660601 C148.568389,15.2865887 147.920973,16.1025076 147.209726,16.8538905 L150.542553,16.8538905 L150.99848,16.7248186 L152.133739,17.5776152 C154.591185,14.1710386 156.237082,8.97128448 157.180851,3.54104478 L159.574468,3.93287022 C159.238582,5.84086206 158.806406,7.73023798 158.279635,9.59359548 L167.731003,9.59359548 L167.731003,11.898451 L165.702128,11.8846219 Z M160.427052,22.2564719 C161.794833,19.3754025 162.62462,15.9411677 163.240122,11.8846219 L157.577508,11.8846219 C158.121287,15.4430328 159.077725,18.9242997 160.427052,22.2564719 L160.427052,22.2564719 Z" id="Shape" fill="#F19F4D" fill-rule="nonzero"></path>
                <path d="M201,9.13669827 L192.065042,9.13669827 C194.587799,11.0616398 197.779858,13.6343541 199.50694,15.2009533 L197.48499,16.6343227 C196.885894,16.0187089 196.020013,15.2009533 195.023079,14.3372564 C178.215623,15.3112125 176.521304,15.3801245 175.393318,15.8027847 C175.166489,14.9606079 174.88509,14.1335118 174.550839,13.3265472 C175.347162,13.1458915 176.095355,12.8013986 176.745965,12.315838 C178.151099,11.3347759 179.492324,10.2683855 180.761782,9.12291587 L172,9.12291587 L172,6.98205009 L185.75113,6.98205009 C185.283086,6.06322357 184.68867,5.0249496 184.187863,4.22557053 L186.617011,3.54104478 C187.281633,4.58391287 188.110071,5.95296439 188.676404,6.99583248 L201,6.99583248 L201,9.13669827 Z M196.614429,30.8210041 C196.614429,32.2543735 196.183828,32.8424224 195.018399,33.2007648 C193.85297,33.5591071 191.798257,33.5408896 188.592156,33.5408896 C188.397705,32.8324129 188.108096,32.1526415 187.730955,31.5193122 C190.188186,31.5836301 192.678179,31.5836301 193.277276,31.5514712 C193.974661,31.5193122 194.17592,31.3585176 194.17592,30.8026276 L194.17592,27.9175123 L178.941091,27.9175123 L178.941091,33.5408896 L176.516624,33.5408896 L176.516624,17.2223716 L196.614429,17.2223716 L196.614429,30.8210041 Z M178.941091,19.24379 L178.941091,21.7889394 L194.157198,21.7889394 L194.157198,19.24379 L178.941091,19.24379 Z M194.157198,26.1349888 L194.157198,23.5806511 L178.941091,23.5806511 L178.941091,26.1258006 L194.157198,26.1349888 Z M192.827954,12.5041975 C191.765494,11.5853709 190.703034,10.7446447 189.706101,9.99120693 L191.133635,9.14588653 L184.421885,9.14588653 C182.822419,10.594639 181.12416,11.9346403 179.338928,13.1565643 L192.827954,12.5041975 Z" id="Shape" fill="#F19F4D" fill-rule="nonzero"></path>
            </g>
        </g>
    </g>
</svg>