<svg id="Capa_1" data-name="Capa 1" xmlns="http://www.w3.org/2000/svg" width="512" height="512" viewBox="0 0 512 512">
  <defs>
    <style>
      .cls-1 {
        fill: #f19f4d;
      }
    </style>
  </defs>
  <path class="cls-1" d="M387.2,274.13,335.27,208a111.52,111.52,0,0,0,31.42-70.08H447.1v8.81a40,40,0,1,0,16,0V129.94a8,8,0,0,0-8-8H366.69A111.22,111.22,0,0,0,343.25,61.1l11.16-11.16h94.16a24,24,0,1,0,0-16H351.1a8,8,0,0,0-5.65,2.35L332.53,49.21a111.76,111.76,0,0,0-189,72.73H76.31L50.16,63.12a23.92,23.92,0,1,0-16.57,2.13l30.2,67.95a8,8,0,0,0,7.31,4.74h72.41a111.5,111.5,0,0,0,30.86,69.43L106.83,274.9A80,80,0,0,0,83.13,433c1.32.2,2.65.36,4,.5v40.4a8,8,0,0,0,8,8h73.47a24,24,0,1,0,0-16H103.1v-32.4a80,80,0,0,0,21.6-153.86l61.6-61.6a111.26,111.26,0,0,0,137,.55l44.39,56.5a112,112,0,1,0,19.56-1Zm91.9-88.19a24,24,0,1,1-24-24A24,24,0,0,1,479.1,185.94Zm-8-152a8,8,0,1,1-8,8A8,8,0,0,1,471.1,33.94Zm-432,16a8,8,0,1,1,8-8A8,8,0,0,1,39.1,49.94Zm152,416a8,8,0,1,1-8,8A8,8,0,0,1,191.1,465.94Zm-64-56.65a63.48,63.48,0,0,1-64,0V394a32,32,0,0,1,64,0Zm-48-79.35a16,16,0,1,1,16,16A16,16,0,0,1,79.1,329.94Zm64-18.47a64,64,0,0,1,0,84.67V394a48,48,0,0,0-24.85-42,32,32,0,1,0-46.3,0,48,48,0,0,0-24.85,42v2.2a64,64,0,1,1,96-84.67Zm168-103.73a95.34,95.34,0,0,1-112,0v-19.4a26.4,26.4,0,0,1,26.4-26.4h17.76l-11.61,29a8,8,0,0,0,1.78,8.63l16,16a8,8,0,0,0,11.31,0l16-16a8,8,0,0,0,1.78-8.63l-11.6-29H284.7a26.4,26.4,0,0,1,26.4,26.4v19.4ZM256.25,77.82a7.63,7.63,0,0,0-.73,1.59c-4.05,12.13-25.9,16.73-40,18.07,2.15-26.81,14.77-39.54,39.56-39.54,22.71,0,35.2,10.74,38.78,33.14l-26.66-16A8,8,0,0,0,256.25,77.82Zm9.88,15.28,28.6,17.16c-3.21,19.58-27.35,35.68-39.63,35.68a50.41,50.41,0,0,1-38.89-32.41C229.91,112.4,254.64,108.25,266.13,93.1ZM261.71,192l-6.61,6.61L248.49,192l6.61-16.54ZM290,146.31a55.53,55.53,0,0,0,21.09-40.37c0-52.89-30.45-64-56-64s-56,11.11-56,64a55.54,55.54,0,0,0,21.1,40.4,42.26,42.26,0,0,0-37.1,42v4.87a96,96,0,1,1,144,0v-4.87A42.27,42.27,0,0,0,290,146.31ZM439.1,463.74a95.34,95.34,0,0,1-112,0V444.35A26.4,26.4,0,0,1,353.5,418h17.76l-11.61,29a8,8,0,0,0,1.78,8.63l16,16a8,8,0,0,0,11.31,0l16-16a8,8,0,0,0,1.78-8.63l-11.6-29H412.7a26.4,26.4,0,0,1,26.4,26.4Zm-45-114.64h0l28.6,17.16c-3.21,19.59-27.35,35.7-39.63,35.7a50.44,50.44,0,0,1-38.89-32.42C357.91,368.4,382.64,364.25,394.13,349.1Zm-50.59,4.38h0c2.15-26.81,14.76-39.54,39.56-39.54,22.71,0,35.2,10.74,38.78,33.14l-26.66-16a8,8,0,0,0-11,2.75,7.8,7.8,0,0,0-.73,1.58C379.47,347.54,357.61,352.14,343.54,353.48ZM389.71,448l-6.61,6.61L376.49,448l6.61-16.54Zm65.39,1.21v-4.89a42.27,42.27,0,0,0-37.09-42,55.53,55.53,0,0,0,21.09-40.37c0-52.89-30.45-64-56-64s-56,11.11-56,64a55.54,55.54,0,0,0,21.1,40.4,42.26,42.26,0,0,0-37.1,42v4.87a96,96,0,1,1,144,0Z"/>
</svg>
