<svg id="Capa_1" data-name="Capa 1" xmlns="http://www.w3.org/2000/svg" width="512" height="512" viewBox="0 0 512 512">
  <defs>
    <style>
      .cls-1 {
        fill: #f19f4d;
      }
    </style>
  </defs>
  <g>
    <path class="cls-1" d="M446.26,440a88,88,0,1,0-92.49-147.82V216a64,64,0,0,0-32-55.34V64a56,56,0,0,0-56-56h-208a56,56,0,0,0-56,56V448a56,56,0,0,0,56,56H479.18l18.59-46.46v-3.83A13.71,13.71,0,0,0,484.06,440ZM391.14,290.46a71.91,71.91,0,0,1,89.34,82.65L363,305.3A71.53,71.53,0,0,1,391.14,290.46ZM347.42,324a74.37,74.37,0,0,1,4.4-6.7l123.89,71.53a71.59,71.59,0,0,1-3.59,7.17,72.37,72.37,0,0,1-4.41,6.7L343.82,331.17A71.68,71.68,0,0,1,347.42,324Zm-8.36,22.89L456.51,414.7a71.9,71.9,0,0,1-117.45-67.81Zm-3.72,60A48,48,0,0,1,241.77,392V312h94.37c-.87,1.33-1.78,2.62-2.58,4A88.08,88.08,0,0,0,335.34,406.85Zm11.28,14.33a87.52,87.52,0,0,0,19.15,15c2.49,1.44,5.09,2.6,7.67,3.79H331.68A64.24,64.24,0,0,0,346.62,421.18ZM337.77,216v80h-96V216a48,48,0,0,1,96,0Zm-320-112h248a8,8,0,0,0,8-8h0a8,8,0,0,0-8-8h-248V64a40,40,0,0,1,40-40h208a40,40,0,0,1,40,40V88h-8a8,8,0,0,0-8,8h0a8,8,0,0,0,8,8h8v16h-288Zm0,32h288v18.1a63.77,63.77,0,0,0-80,61.9v16h-24V172.71A12.71,12.71,0,0,0,189.05,160H134.48a12.71,12.71,0,0,0-12.71,12.71V232H62.48a12.71,12.71,0,0,0-12.71,12.71v54.58A12.71,12.71,0,0,0,62.48,312h59.29v59.29A12.71,12.71,0,0,0,134.48,384h54.57a12.71,12.71,0,0,0,12.72-12.71V312h24v80a63.52,63.52,0,0,0,2.1,16H17.77Zm48,160V248h72V176h48v72h40v48h-40v72h-48V296Zm-8,192a40,40,0,0,1-40-40V424H234.42a64.64,64.64,0,0,0,13.16,16H223.47a13.7,13.7,0,0,0-13.7,13.71v3.83L222,488Zm410.58,0H239.18l-12.8-32H481.15Z"/>
    <rect class="cls-1" x="257.77" y="264" width="16" height="16" rx="8"/>
    <path class="cls-1" d="M257.77,216v24a8,8,0,0,0,8,8h0a8,8,0,0,0,8-8V216a16,16,0,0,1,10.61-15.07,8,8,0,0,0,5.39-7.43v-.37a7.84,7.84,0,0,0-10.4-7.4A32.06,32.06,0,0,0,257.77,216Z"/>
  </g>
</svg>
