<svg id="Capa_1" data-name="Capa 1" xmlns="http://www.w3.org/2000/svg" width="512" height="512" viewBox="0 0 512 512">
  <defs>
    <style>
      .cls-1 {
        fill: #f19f4d;
      }
    </style>
  </defs>
  <path class="cls-1" d="M342,328.36c-12.13,0-22-8.54-22-19s9.87-19.05,22-19.05,22,8.55,22,19.05a10,10,0,0,0,20,0c0-18.33-13.65-33.74-32-37.92v-5.2a10,10,0,0,0-20,0v5.2c-18.34,4.18-32,19.59-32,37.92,0,21.52,18.84,39,42,39,12.13,0,22,8.54,22,19s-9.87,19-22,19-22-8.54-22-19a10,10,0,0,0-20,0c0,18.32,13.66,33.73,32,37.91v4.32a10,10,0,0,0,20,0v-4.32c18.35-4.18,32-19.59,32-37.91C384,345.87,365.11,328.36,342,328.36Z"/>
  <path class="cls-1" d="M451.48,268.88a130.3,130.3,0,0,0-53.22-47.11,10,10,0,0,0-8.67,18,110.09,110.09,0,0,1,49.59,150.79,10,10,0,1,0,17.65,9.4,130.12,130.12,0,0,0-5.35-131.11Z"/>
  <path class="cls-1" d="M357.67,209H357a10,10,0,0,0,0,20h.63a10,10,0,0,0,0-20Z"/>
  <path class="cls-1" d="M294.41,438.2a110.09,110.09,0,0,1-49.59-150.79A10,10,0,1,0,227.17,278a130.05,130.05,0,0,0,58.57,178.21,10,10,0,1,0,8.67-18Z"/>
  <path class="cls-1" d="M327,449h-.58a10,10,0,0,0-.09,20H327a10,10,0,0,0,0-20Z"/>
  <path class="cls-1" d="M387.41,175.17A46.24,46.24,0,0,0,383,167h26a46,46,0,0,0,0-92H328.92A46,46,0,0,0,291,3H46a46,46,0,0,0,0,92h80.08a45.87,45.87,0,0,0,0,52H100a46,46,0,0,0-28.59,82,45.92,45.92,0,0,0,0,72,45.92,45.92,0,0,0,0,72A46,46,0,0,0,100,455H217.85A169.54,169.54,0,0,0,342,509c93.74,0,170-76.26,170-170C512,261,459.17,195.08,387.41,175.17ZM409,95a26,26,0,0,1,0,52H164a26,26,0,0,1,0-52ZM46,75a26,26,0,0,1,0-52H291a26,26,0,0,1,0,52Zm54,92H345a26,26,0,0,1,11.34,2.61Q349.25,169,342,169a169.49,169.49,0,0,0-120.3,50H100a26,26,0,0,1,0-52Zm0,72H204.61a169.6,169.6,0,0,0-25.7,52H100a26,26,0,0,1,0-52Zm0,72h74.32a170.19,170.19,0,0,0-.62,52H100a26,26,0,0,1,0-52Zm0,124a26,26,0,0,1,0-52h77.79a169.17,169.17,0,0,0,24,52Zm242,54c-82.71,0-150-67.29-150-150s67.29-150,150-150,150,67.29,150,150S424.71,489,342,489Z"/>
</svg>
