<svg xmlns="http://www.w3.org/2000/svg" width="3in" height="3in" viewBox="0 0 216 216">
  <defs>
    <style>
      .cls-1 {
        fill: #f19f4d;
      }
    </style>
  </defs>
  <g id="Layer_3" data-name="Layer 3">
    <g>
      <path class="cls-1" d="M178.94,202.09c-6.15-2.62-11.75-6.27-17.67-9.34a2.38,2.38,0,0,0-1.86-.23c-7.39,1.84-14.85,3.15-22.51,2.63-19-1.28-35.28-8.13-47.85-22.73a50.11,50.11,0,0,1-11.91-26.81c-.12-1-.2-1.9-.24-2.86,0-.42-.16-.59-.57-.61-4.61-.31-9-1.69-13.43-2.79-.65-.16-1.08.2-1.56.44L41.13,149.92a6.58,6.58,0,0,1-7-.25A6.51,6.51,0,0,1,31.61,142c1.62-4.94,3.25-9.87,4.93-14.79a1.14,1.14,0,0,0-.43-1.54C28.48,119.63,22,112.6,17.38,103.94a53.74,53.74,0,0,1-6.33-29.67c1.19-16.6,8.6-30.09,20.9-41A75.09,75.09,0,0,1,69.87,15.31c21.17-3.64,41.18-.25,59.68,10.83,11.77,7.06,21,16.62,26.68,29.22a56.83,56.83,0,0,1,5.26,27,24.68,24.68,0,0,1-.44,3.53c-.16.72.11.88.7,1.06A65.56,65.56,0,0,1,177,93.72c10.92,6.67,19.42,15.53,24.45,27.46a47.56,47.56,0,0,1,3.49,13.95c0,.2-.12.48.2.58v.59c-.35.2-.27.4,0,.6v1c-.42.77-.11,1.59-.18,2.39.05.39-.21.83.18,1.18V143c-.32.11-.19.38-.22.59a45.46,45.46,0,0,1-5.22,16.77,67.6,67.6,0,0,1-16.43,19.73,1.51,1.51,0,0,0-.54,1.91q1.8,5.75,3.47,11.53a6.46,6.46,0,0,1-5.41,8.34c-.54.07-1.12-.23-1.61.18ZM49.05,131.21c3.24-1.62,6.28-3.12,9.3-4.66a6.59,6.59,0,0,1,4.41-.66c2.1.43,4.18.94,6.26,1.43A53.79,53.79,0,0,0,77.15,129c.53,0,.8,0,.95-.65a52,52,0,0,1,13.83-24.92,64.26,64.26,0,0,1,29.61-17.09A75.23,75.23,0,0,1,145,83.85c1,.05,2.36.66,3,0s.43-2.06.47-3.15a43.64,43.64,0,0,0-1.89-13.77c-2.92-10.19-8.95-18.28-17.12-24.84A68.32,68.32,0,0,0,93.84,27.56a70.27,70.27,0,0,0-34.59,4.33c-11.32,4.49-20.79,11.39-27.6,21.62-10.13,15.2-10.15,33.65-.09,48.54a64,64,0,0,0,16.36,16.09c3,2.15,3.87,4.81,2.71,8.3C50.12,128,49.62,129.48,49.05,131.21Zm119.76,50.67a2.86,2.86,0,0,0-.27-1.32,6.66,6.66,0,0,1,2.51-7.45A65,65,0,0,0,185.77,158c6.91-10.22,8.14-21,3.25-32.4-3.76-8.71-10.08-15.27-18.1-20.15-14.39-8.76-29.84-10.75-46-6.35-11,3-20.4,8.75-27.29,18-7.11,9.56-9.49,20.21-6.38,31.8,2.72,10.15,9,17.75,17.59,23.59a54.68,54.68,0,0,0,23.53,8.94,50.7,50.7,0,0,0,13.92.26A110.82,110.82,0,0,0,159.1,179a7.48,7.48,0,0,1,5.9.77C166.23,180.51,167.51,181.17,168.81,181.88Z"/>
      <path class="cls-1" d="M66.22,65.77c0,5.86-4.64,9.46-10.6,8.25a10.5,10.5,0,0,1-6.31-3.58,7.27,7.27,0,0,1,.21-9.67,11.35,11.35,0,0,1,11.34-3C64.27,58.9,66.24,61.83,66.22,65.77Z"/>
      <path class="cls-1" d="M105.09,57.27c3.93,0,6.93,2,8.06,5.23,1.29,3.69.25,7.85-2.49,10-4.55,3.55-12.91,1.33-15.1-4C94.15,65,95.54,61.2,99,59A11.86,11.86,0,0,1,105.09,57.27Z"/>
      <path class="cls-1" d="M122.7,131a7.13,7.13,0,0,1-7.17-7.11c.19-3.68,4.13-6.85,7.91-6.36a9,9,0,0,1,5.32,2.38,5.77,5.77,0,0,1-.17,8.87A9,9,0,0,1,122.7,131Z"/>
      <path class="cls-1" d="M159.92,131c-3.71.11-7.3-3.42-7.1-7a7.26,7.26,0,0,1,7.87-6.49,9,9,0,0,1,5.39,2.43,5.73,5.73,0,0,1-.05,8.66A9,9,0,0,1,159.92,131Z"/>
    </g>
  </g>
</svg>
