<svg id="Layer_1" data-name="Layer 1" xmlns="http://www.w3.org/2000/svg" width="3in" height="3in" viewBox="0 0 216 216">
  <defs>
    <style>
      .cls-1 {
        fill: #f19f4d;
      }
    </style>
  </defs>
  <path class="cls-1" d="M191.1,1.19H48.36A30.32,30.32,0,0,0,18.09,31.46V184.54a30.31,30.31,0,0,0,30.27,30.27H191.11a6.81,6.81,0,0,0,6.8-6.8V8A6.81,6.81,0,0,0,191.1,1.19ZM82.93,14.79V49.33l-2.18-2.19a6.8,6.8,0,0,0-9.62,0L69,49.33V14.79Zm-34.57,0h7v51A6.8,6.8,0,0,0,67,70.55l9-9,9,9a6.81,6.81,0,0,0,4.81,2h0a6.8,6.8,0,0,0,6.8-6.8v-51h87.78V154.27H48.36a30.09,30.09,0,0,0-16.67,5V31.46A16.7,16.7,0,0,1,48.36,14.79Zm0,186.42a16.67,16.67,0,0,1,0-33.34h136v9.87H48.36a6.8,6.8,0,0,0,0,13.6h136v9.87Z"/>
</svg>
