<svg xmlns="http://www.w3.org/2000/svg" width="512" height="512" viewBox="0 0 512 512">
  <defs>
    <style>
      .cls-1 {
        fill: #f19f4d;
      }
    </style>
  </defs>
  <g id="Layer_3" data-name="Layer 3">
    <g>
      <path class="cls-1" d="M467,74.85H283.91a7.5,7.5,0,0,0,0,15H467a7.5,7.5,0,0,0,0-15Z"/>
      <path class="cls-1" d="M467,112.1H283.91a7.5,7.5,0,0,0,0,15H467a7.5,7.5,0,0,0,0-15Z"/>
      <path class="cls-1" d="M368.64,149.34H283.91a7.5,7.5,0,0,0,0,15h84.73a7.5,7.5,0,0,0,0-15Z"/>
      <path class="cls-1" d="M233.77,346.56H50.66a7.5,7.5,0,0,0,0,15H233.77a7.5,7.5,0,1,0,0-15Z"/>
      <path class="cls-1" d="M233.77,383.81H50.66a7.5,7.5,0,0,0,0,15H233.77a7.5,7.5,0,1,0,0-15Z"/>
      <path class="cls-1" d="M233.77,421.05H149a7.5,7.5,0,0,0,0,15h84.73a7.5,7.5,0,1,0,0-15Z"/>
      <path class="cls-1" d="M21.94,272H174.32A21.7,21.7,0,0,0,196,250.28c-.05-29-.09-44.49,0-48a38.51,38.51,0,0,0-23.42-36.72c-11.51-5.07-31.94-8.22-43.47-9.68l0-12.73a54.76,54.76,0,0,0,23.25-40.43c4.89-3.72,9.88-11.11,9.88-23.82V47.79A47.85,47.85,0,0,0,114.41,0H81.07A47.85,47.85,0,0,0,33.28,47.79V78.92c0,12.71,5,20.1,9.87,23.82a54.79,54.79,0,0,0,23,40.24l0,13.18c-11.52,1.56-31.91,4.89-43.38,10.05A38.77,38.77,0,0,0,.23,202.84v5.24a7.5,7.5,0,0,0,15,0v-5.56A23.8,23.8,0,0,1,29,179.89c6.71-3,19.64-6,35.84-8.39a45.91,45.91,0,0,0,65.83-.28c16.23,2.22,29.18,5.13,35.92,8.09A23.47,23.47,0,0,1,181,201.93c-.1,4-.05,20.14,0,48.37a6.71,6.71,0,0,1-6.71,6.71H21.94a6.71,6.71,0,0,1-6.7-6.7v-7.17a7.5,7.5,0,0,0-15,0v7.17A21.72,21.72,0,0,0,21.94,272ZM48.28,47.79A32.83,32.83,0,0,1,81.07,15h33.34a32.83,32.83,0,0,1,32.8,32.79V71.42H142.5a8.62,8.62,0,0,1-2.64-5.53v-10A17.09,17.09,0,0,0,122.8,38.78a16.83,16.83,0,0,0-7,1.5c-13.46,6-22.47,6.13-36.13,0a16.9,16.9,0,0,0-7-1.5A17.08,17.08,0,0,0,55.63,55.85v10A8.62,8.62,0,0,1,53,71.42H48.28ZM79.12,164.13a14.15,14.15,0,0,0,2.07-7.47l0-6.19a54.57,54.57,0,0,0,32.94.07l0,6a14.2,14.2,0,0,0,2.14,7.45A30.87,30.87,0,0,1,79.12,164.13Zm18.62-26.08A39.81,39.81,0,0,1,58,98.28c0-3.58-1.76-6.47-5.23-7.17-.54-.29-2.24-1.43-3.38-4.69h4c10.54,0,17.27-12.16,17.27-20.53v-10a2.07,2.07,0,0,1,2.06-2.07,2,2,0,0,1,.84.18c16.73,7.51,30.2,8.18,48.42,0a2.07,2.07,0,0,1,2.91,1.89v10c0,8.37,6.72,20.53,17.26,20.53h4c-1.14,3.26-2.84,4.4-3.38,4.69-3.46.7-5.23,3.59-5.23,7.17A39.81,39.81,0,0,1,97.74,138.05Z"/>
      <path class="cls-1" d="M511.79,442.29a38.51,38.51,0,0,0-23.42-36.72c-11.51-5.07-31.94-8.22-43.47-9.68l0-12.73a54.77,54.77,0,0,0,23.25-40.43C473,339,478,331.61,478,318.91V287.78A47.85,47.85,0,0,0,430.18,240H396.84a47.85,47.85,0,0,0-47.79,47.79v31.13c0,12.7,5,20.1,9.87,23.82a54.83,54.83,0,0,0,23,40.24l.06,13.18c-11.52,1.56-31.91,4.89-43.38,10.05A38.74,38.74,0,0,0,316,442.83v4.25a7.5,7.5,0,0,0,15,0v-4.57a23.78,23.78,0,0,1,13.74-22.63c6.7-3,19.64-6,35.84-8.39a45.9,45.9,0,0,0,65.82-.28c16.23,2.22,29.19,5.12,35.92,8.09a23.45,23.45,0,0,1,14.48,22.62c-.1,4.19,0,20.48,0,48.36a6.7,6.7,0,0,1-6.7,6.72H337.71a6.72,6.72,0,0,1-6.71-6.7v-8.16a7.5,7.5,0,0,0-15,0v8.16A21.73,21.73,0,0,0,337.71,512H490.09a21.69,21.69,0,0,0,21.7-21.73c0-25.79-.09-44,0-48ZM364.05,287.78A32.83,32.83,0,0,1,396.84,255h33.34A32.84,32.84,0,0,1,463,287.78v23.63h-4.71a8.65,8.65,0,0,1-2.64-5.54v-10a17.08,17.08,0,0,0-17.07-17.06,16.82,16.82,0,0,0-7,1.5c-13.65,6.12-22.65,6.05-36.13,0a16.9,16.9,0,0,0-7-1.5,17.08,17.08,0,0,0-17.06,17.06v10a8.67,8.67,0,0,1-2.64,5.54h-4.71Zm30.84,116.34a14.27,14.27,0,0,0,2.07-7.47l0-6.19a54.57,54.57,0,0,0,32.94.07l0,6a14.2,14.2,0,0,0,2.14,7.45A30.89,30.89,0,0,1,394.89,404.12ZM413.51,378a39.81,39.81,0,0,1-39.77-39.77c0-3.58-1.77-6.48-5.23-7.17-.54-.29-2.24-1.44-3.38-4.69h4c10.54,0,17.27-12.16,17.27-20.54v-10a2.06,2.06,0,0,1,2.06-2.06,2,2,0,0,1,.84.18c16.73,7.51,30.2,8.18,48.42,0a2.07,2.07,0,0,1,2.91,1.88v10c0,8.38,6.73,20.54,17.26,20.54h4c-1.14,3.25-2.84,4.4-3.38,4.69-3.46.69-5.23,3.59-5.23,7.17A39.81,39.81,0,0,1,413.51,378Z"/>
      <path class="cls-1" d="M485.41,34.34H260.9a26.54,26.54,0,0,0-25.39,19H187.3a12.77,12.77,0,0,0-7.44,23.14l53.47,38.36a2.62,2.62,0,0,1,1.09,2.12v61.45a26.51,26.51,0,0,0,26.48,26.48H485.41a26.51,26.51,0,0,0,26.48-26.48V60.83A26.51,26.51,0,0,0,485.41,34.34Zm11.48,144a11.49,11.49,0,0,1-11.48,11.48H260.9a11.49,11.49,0,0,1-11.48-11.48V116.92a17.66,17.66,0,0,0-7.35-14.31L194.24,68.3h47.68a7.5,7.5,0,0,0,7.5-7.49A11.5,11.5,0,0,1,260.9,49.34H485.41a11.5,11.5,0,0,1,11.48,11.49Z"/>
      <path class="cls-1" d="M336.68,335a12.73,12.73,0,0,0-12.15-8.86H276.32a26.54,26.54,0,0,0-25.39-19H26.42A26.51,26.51,0,0,0-.06,333.63V451.17a26.51,26.51,0,0,0,26.48,26.49H250.93a26.51,26.51,0,0,0,26.48-26.49V389.73a2.64,2.64,0,0,1,1.09-2.13L332,349.25A12.74,12.74,0,0,0,336.68,335Zm-66.92,40.46a17.66,17.66,0,0,0-7.35,14.31v61.44a11.5,11.5,0,0,1-11.48,11.49H26.42a11.5,11.5,0,0,1-11.48-11.49V333.63a11.49,11.49,0,0,1,11.48-11.48H250.93a11.5,11.5,0,0,1,11.48,11.46,7.5,7.5,0,0,0,7.5,7.49h47.68Z"/>
    </g>
  </g>
</svg>
