<svg xmlns="http://www.w3.org/2000/svg" width="512" height="512" viewBox="0 0 512 512">
  <defs>
    <style>
      .cls-1 {
        fill: #f19f4d;
      }
    </style>
  </defs>
  <g id="Layer_1" data-name="Layer 1">
    <g>
      <path class="cls-1" d="M206.71,88.56a7.5,7.5,0,0,0-10.61,0l-18.27,18.26L167.46,96.45a7.5,7.5,0,0,0-10.6,10.61l15.67,15.67a7.5,7.5,0,0,0,10.61,0l23.57-23.57a7.49,7.49,0,0,0,0-10.6Z"/>
      <path class="cls-1" d="M206.71,156.2a7.5,7.5,0,0,0-10.61,0l-18.27,18.27L167.46,164.1a7.5,7.5,0,0,0-10.6,10.61l15.67,15.67a7.5,7.5,0,0,0,10.61,0l23.57-23.57a7.5,7.5,0,0,0,0-10.61Z"/>
      <path class="cls-1" d="M34.51,512h443A34.68,34.68,0,0,0,512,477.23V457a13.37,13.37,0,0,0-13.32-13.38H473a42.22,42.22,0,0,0,9.81-26.91V308.89a7.5,7.5,0,0,0-15,0V416.73a27.6,27.6,0,0,1-22.5,26.91H66.65a27.59,27.59,0,0,1-22.49-26.91V155.28a27.38,27.38,0,0,1,27.35-27.35H112V144H74.22a13.77,13.77,0,0,0-13.75,13.76v256.1a13.77,13.77,0,0,0,13.75,13.75H437.78a13.77,13.77,0,0,0,13.75-13.75V157.76A13.77,13.77,0,0,0,437.78,144H400V127.93h40.5a27.38,27.38,0,0,1,27.35,27.35V273.89a7.5,7.5,0,0,0,15,0V155.28a42.4,42.4,0,0,0-42.35-42.35H400V20.63A20.65,20.65,0,0,0,379.36,0H273.5a7.5,7.5,0,0,0,0,15H379.36A5.63,5.63,0,0,1,385,20.63V366.21a5.4,5.4,0,0,1-5.4,5.4H132.41a5.4,5.4,0,0,1-5.4-5.4v-293H164.6a20.65,20.65,0,0,0,20.63-20.63V15H238.5a7.5,7.5,0,0,0,0-15H177.73a7.54,7.54,0,0,0-5.3,2.2L114.21,60.42a7.57,7.57,0,0,0-2.2,5.3v47.21H71.51a42.4,42.4,0,0,0-42.35,42.35V416.73A42.17,42.17,0,0,0,39,443.64H13.32A13.36,13.36,0,0,0,0,457v20.21A34.68,34.68,0,0,0,34.51,512ZM170.23,25.61v27a5.63,5.63,0,0,1-5.63,5.63h-27Zm-37.82,361H379.59a20.42,20.42,0,0,0,20.4-20.4V159h36.54V412.61H75.47V159H112V366.21a20.42,20.42,0,0,0,20.4,20.4Zm58.6,72H321v6.06a4.62,4.62,0,0,1-4.5,4.62h-121a4.62,4.62,0,0,1-4.5-4.62Zm-176,0H176v6.06a19.58,19.58,0,0,0,19.5,19.62h121A19.58,19.58,0,0,0,336,464.7v-6.06H497v18.59A19.66,19.66,0,0,1,477.49,497h-443A19.66,19.66,0,0,1,15,477.23Z"/>
      <path class="cls-1" d="M354.58,85H232.38a7.5,7.5,0,0,0,0,15h122.2a7.5,7.5,0,0,0,0-15Z"/>
      <path class="cls-1" d="M354.58,114.59H232.38a7.5,7.5,0,0,0,0,15h122.2a7.5,7.5,0,0,0,0-15Z"/>
      <path class="cls-1" d="M354.58,154H232.38a7.5,7.5,0,0,0,0,15h122.2a7.5,7.5,0,0,0,0-15Z"/>
      <path class="cls-1" d="M354.58,183.61H232.38a7.5,7.5,0,0,0,0,15h122.2a7.5,7.5,0,1,0,0-15Z"/>
      <path class="cls-1" d="M193.38,269.36H164.22a7.49,7.49,0,0,0-7.5,7.49v56.93a7.5,7.5,0,0,0,7.5,7.5c.24,0,.47,0,.7,0h27.76c.23,0,.47,0,.7,0a7.49,7.49,0,0,0,7.5-7.5V276.85A7.49,7.49,0,0,0,193.38,269.36Zm-21.66,15h14.16v41.9H171.72Z"/>
      <path class="cls-1" d="M245.83,239.36H216.66a7.49,7.49,0,0,0-7.5,7.49v86.93a7.5,7.5,0,0,0,7.5,7.5c.24,0,.47,0,.71,0h27.75c.24,0,.47,0,.71,0a7.5,7.5,0,0,0,7.5-7.5V246.85A7.49,7.49,0,0,0,245.83,239.36Zm-21.67,15h14.17v71.9H224.16Z"/>
      <path class="cls-1" d="M300.55,249.36H271.38a7.49,7.49,0,0,0-7.5,7.49v76.93a7.5,7.5,0,0,0,7.5,7.5c.24,0,.48,0,.71,0h27.75c.24,0,.47,0,.71,0a7.5,7.5,0,0,0,7.5-7.5V256.85A7.49,7.49,0,0,0,300.55,249.36Zm-21.67,15h14.17v61.9H278.88Z"/>
      <path class="cls-1" d="M353,219.36H323.83a7.49,7.49,0,0,0-7.5,7.49V333.78a7.49,7.49,0,0,0,7.5,7.5c.23,0,.47,0,.7,0h27.76c.23,0,.46,0,.7,0a7.5,7.5,0,0,0,7.5-7.5V226.85A7.49,7.49,0,0,0,353,219.36Zm-21.66,15h14.16v91.9H331.33Z"/>
    </g>
  </g>
</svg>
