<?xml version="1.0" encoding="UTF-8"?>
<svg width="27px" height="31px" viewBox="0 0 27 31" version="1.1" xmlns="http://www.w3.org/2000/svg" xmlns:xlink="http://www.w3.org/1999/xlink">
    <title>Group 15</title>
    <defs>
        <polygon id="path-1" points="0 0 26.9977701 0 26.9977701 29.1891892 0 29.1891892"></polygon>
        <polygon id="path-3" points="0 29.7239895 27 29.7239895 27 0.534800355 0 0.534800355"></polygon>
    </defs>
    <g id="一对一专业科普" stroke="none" stroke-width="1" fill="none" fill-rule="evenodd">
        <g id="一对一科普---Desktops" transform="translate(-206.000000, -1536.000000)">
            <g id="Group-15" transform="translate(206.000000, 1536.000000)">
                <g id="Group-3" transform="translate(0.000000, 0.534800)">
                    <mask id="mask-2" fill="white">
                        <use xlink:href="#path-1"></use>
                    </mask>
                    <g id="Clip-2"></g>
                    <path d="M26.0334844,28.2162162 L23.1406272,28.2162162 L23.1406272,20.5472432 L24.0566384,18.7039459 C24.1757277,18.4636216 24.079058,18.1714257 23.8408795,18.0513243 C23.7731384,18.0171486 23.6984665,17.9995743 23.6227701,18 L13.0156272,18 C12.7493638,18 12.5334844,18.2178243 12.5334844,18.4864865 L12.5334844,24.7655676 L9.15848438,20.7408649 L9.15848438,13.1351351 L9.64062723,13.1351351 C9.90683036,13.1351351 10.1227701,12.9173108 10.1227701,12.6486486 L10.1227701,10.7027027 C10.1227701,10.4340405 9.90683036,10.2162162 9.64062723,10.2162162 L6.74777009,10.2162162 L6.74777009,2.43243243 L11.0870558,2.43243243 L11.0870558,3.40540541 C11.0870558,3.67406757 11.3029353,3.89189189 11.5691987,3.89189189 L20.2477701,3.89189189 C20.5140335,3.89189189 20.7299129,3.67406757 20.7299129,3.40540541 L20.7299129,2.43243243 L26.0334844,2.43243243 L26.0334844,28.2162162 Z M22.2269665,20.214973 C22.1935179,20.2825338 22.1762813,20.3569662 22.1763415,20.4324324 L20.7299129,20.4324324 L20.7299129,21.4054054 L22.1763415,21.4054054 L22.1763415,22.3783784 L20.7299129,22.3783784 L20.7299129,23.3513514 L22.1763415,23.3513514 L22.1763415,24.3243243 L20.7299129,24.3243243 L20.7299129,25.2972973 L22.1763415,25.2972973 L22.1763415,26.2702703 L20.7299129,26.2702703 L20.7299129,27.2432432 L22.1763415,27.2432432 L22.1763415,28.2162162 L19.7656272,28.2162162 L19.7656272,22.3783784 L18.8013415,22.3783784 L18.8013415,28.2162162 L14.3477879,28.2162162 C14.5646317,27.6819324 14.4682031,27.0701757 14.0974955,26.6302703 L13.4977701,25.9151351 L13.4977701,18.972973 L22.8426629,18.972973 L22.2269665,20.214973 Z M13.2918348,28.0786014 C13.187692,28.1675068 13.0556451,28.216277 12.9191384,28.2162163 L1.54062723,28.2162163 C1.22102679,28.2137838 0.964044643,27.950473 0.966379094,27.6280541 C0.967359375,27.4930541 1.01472991,27.3625541 1.10037054,27.2588108 L1.92634152,26.2702703 L7.7120558,26.2702703 L7.7120558,25.2972973 L2.74598437,25.2972973 L3.56177009,24.3243243 L10.9004063,24.3243243 L13.3593951,27.2592973 C13.5649085,27.5043649 13.534654,27.8711757 13.2918348,28.0786014 L13.2918348,28.0786014 Z M6.15135938,21.2331892 C6.22506696,21.1453784 6.26556696,21.0340338 6.26562723,20.9189189 L6.26562723,18.972973 L7.22991295,18.972973 L7.22991295,18 L6.26562723,18 L6.26562723,17.027027 L7.22991295,17.027027 L7.22991295,16.0540541 L6.26562723,16.0540541 L6.26562723,15.0810811 L7.22991295,15.0810811 L7.22991295,14.1081081 L6.26562723,14.1081081 L6.26562723,13.1351351 L8.19419866,13.1351351 L8.19419866,20.9189189 C8.19419866,21.0340338 8.23469866,21.1453784 8.30846652,21.2331892 L10.0846808,23.3513514 L4.37508482,23.3513514 L6.15135938,21.2331892 Z M5.30134152,12.1621622 L9.15848437,12.1621622 L9.15848437,11.1891892 L5.30134152,11.1891892 L5.30134152,12.1621622 Z M12.0513415,2.91891892 L19.7656272,2.91891892 L19.7656272,0.972972973 L12.0513415,0.972972973 L12.0513415,2.91891892 Z M26.5156272,1.45945946 L20.7299129,1.45945946 L20.7299129,0.486486486 C20.7299129,0.217824324 20.5140335,0 20.2477701,0 L11.5691987,0 C11.3029353,0 11.0870558,0.217824324 11.0870558,0.486486486 L11.0870558,1.45945946 L6.26562723,1.45945946 C5.99936384,1.45945946 5.78348438,1.67728378 5.78348438,1.94594595 L5.78348438,10.2162162 L4.81919866,10.2162162 C4.55293527,10.2162162 4.3370558,10.4340405 4.3370558,10.7027027 L4.3370558,12.6486486 C4.3370558,12.9173108 4.55293527,13.1351351 4.81919866,13.1351351 L5.30134152,13.1351351 L5.30134152,20.7408649 L0.362209821,26.6302703 C-0.186348214,27.2881824 -0.102395089,28.2702162 0.549703125,28.8237162 C0.827176339,29.0592365 1.17799554,29.1886419 1.54062723,29.1891892 L26.5156272,29.1891892 C26.7818906,29.1891892 26.9977701,28.9713649 26.9977701,28.7027027 L26.9977701,1.94594595 C26.9977701,1.67728378 26.7819509,1.45945946 26.5156272,1.45945946 L26.5156272,1.45945946 Z" id="Fill-1" fill="#F19F4D" mask="url(#mask-2)"></path>
                </g>
                <mask id="mask-4" fill="white">
                    <use xlink:href="#path-3"></use>
                </mask>
                <g id="Clip-5"></g>
                <polygon id="Fill-4" fill="#F19F4D" mask="url(#mask-4)" points="9.48648649 26.0753409 10.2162162 26.0753409 10.2162162 25.3456112 9.48648649 25.3456112"></polygon>
                <polygon id="Fill-6" fill="#F19F4D" mask="url(#mask-4)" points="18.972973 20.9672328 19.7027027 20.9672328 19.7027027 20.2375031 18.972973 20.2375031"></polygon>
                <path d="M20.034398,10.2071247 L18.6412776,10.9368544 L17.2481572,10.2071247 L17.2481572,8.37598954 L18.6412776,7.64625981 L20.034398,8.37598954 L20.034398,10.2071247 Z M16.3194103,10.2071247 L14.9262899,10.9368544 L13.5331695,10.2071247 L13.5331695,8.37598954 L14.9262899,7.64625981 L16.3194103,8.37598954 L16.3194103,10.2071247 Z M20.6083636,7.58885441 L19.1056511,6.80171927 L19.1056511,5.64290846 L18.1769042,5.64290846 L18.1769042,6.80171927 L16.7837838,7.531449 L15.3906634,6.80171927 L15.3906634,5.64290846 L14.4619165,5.64290846 L14.4619165,6.80171927 L12.8611631,7.63993549 C12.7037405,7.72233414 12.6043646,7.89096252 12.6044226,8.0753409 L12.6044226,10.0212868 L11.6756757,10.0212868 L11.6756757,10.9942598 L12.9591459,10.9942598 L14.4619165,11.7813949 L14.4619165,12.9402058 L15.3906634,12.9402058 L15.3906634,11.7813949 L16.7837838,11.0516652 L18.1769042,11.7813949 L18.1769042,12.9402058 L19.1056511,12.9402058 L19.1056511,11.7813949 L20.7062884,10.9456112 C20.8645236,10.8627868 20.9641318,10.6930639 20.963145,10.5077733 L20.963145,8.56182738 L21.8918919,8.56182738 L21.8918919,7.58885441 L20.6083636,7.58885441 Z" id="Fill-7" fill="#F19F4D" mask="url(#mask-4)"></path>
                <polygon id="Fill-8" fill="#F19F4D" mask="url(#mask-4)" points="10.2162162 17.3185841 22.6216216 17.3185841 22.6216216 16.5888544 10.2162162 16.5888544"></polygon>
                <polygon id="Fill-9" fill="#F19F4D" mask="url(#mask-4)" points="13.8648649 14.3996652 24.0810811 14.3996652 24.0810811 13.6699355 13.8648649 13.6699355"></polygon>
                <polygon id="Fill-10" fill="#F19F4D" mask="url(#mask-4)" points="11.6756757 14.3996652 12.4054054 14.3996652 12.4054054 13.6699355 11.6756757 13.6699355"></polygon>
                <polygon id="Fill-11" fill="#F19F4D" mask="url(#mask-4)" points="9.48648649 7.10236792 10.2162162 7.10236792 10.2162162 6.37263819 9.48648649 6.37263819"></polygon>
                <polygon id="Fill-12" fill="#F19F4D" mask="url(#mask-4)" points="10.2162162 7.10236792 10.9459459 7.10236792 10.9459459 6.37263819 10.2162162 6.37263819"></polygon>
                <polygon id="Fill-13" fill="#F19F4D" mask="url(#mask-4)" points="21.8918919 6.37263819 22.6216216 6.37263819 22.6216216 5.64290846 21.8918919 5.64290846"></polygon>
                <polygon id="Fill-14" fill="#F19F4D" mask="url(#mask-4)" points="23.3513514 6.37263819 24.0810811 6.37263819 24.0810811 5.64290846 23.3513514 5.64290846"></polygon>
            </g>
        </g>
    </g>
</svg>